solid piston
facet normal 0.009273015091130989 0.8498421034425038 -0.5269557954966816
  outer loop
    vertex -2.9906839483765246 2.896104754287453 -3.393324926151537
    vertex 2.015022124754724 3.3917702336733684 -2.50585887006179
    vertex 2.0090184284953785 2.841550719597837 -3.393324926151551
  endloop
endfacet
facet normal 0.009273015091130989 0.8498421034425038 -0.5269557954966816
  outer loop
    vertex 2.015022124754724 3.3917702336733684 -2.50585887006179
    vertex -2.9906839483765246 2.896104754287453 -3.393324926151537
    vertex -2.9846802521172244 3.4463242683629955 -2.5058588700617785
  endloop
endfacet
facet normal 0.010445128215483804 0.9572625134473876 -0.2890317969444751
  outer loop
    vertex -2.9846802521172244 3.4463242683629955 -2.5058588700617785
    vertex 2.018315112768069 3.693562027645904 -1.5062167200548036
    vertex 2.015022124754724 3.3917702336733684 -2.50585887006179
  endloop
endfacet
facet normal 0.010445128215483804 0.9572625134473876 -0.2890317969444751
  outer loop
    vertex 2.018315112768069 3.693562027645904 -1.5062167200548036
    vertex -2.9846802521172244 3.4463242683629955 -2.5058588700617785
    vertex -2.981387264103879 3.7481160623355327 -1.5062167200547951
  endloop
endfacet
facet normal 0.010905423113338463 0.9994470651119323 -0.031410759078129895
  outer loop
    vertex -2.981387264103879 3.7481160623355327 -1.5062167200547951
    vertex 2.018672980844285 3.726359489490741 -0.46252243666680487
    vertex 2.018315112768069 3.693562027645904 -1.5062167200548036
  endloop
endfacet
facet normal 0.010905423113338463 0.9994470651119323 -0.031410759078129895
  outer loop
    vertex 2.018672980844285 3.726359489490741 -0.46252243666680487
    vertex -2.981387264103879 3.7481160623355327 -1.5062167200547951
    vertex -2.981029396027663 3.7809135241803475 -0.4625224366667936
  endloop
endfacet
facet normal 0.010622531448084034 0.9735209509534645 0.2283508701106622
  outer loop
    vertex -2.981029396027663 3.7809135241803475 -0.4625224366667936
    vertex 2.0160713408653312 3.4879275263834906 0.5540979394756513
    vertex 2.018672980844285 3.726359489490741 -0.46252243666680487
  endloop
endfacet
facet normal 0.010622531448084034 0.9735209509534645 0.2283508701106622
  outer loop
    vertex 2.0160713408653312 3.4879275263834906 0.5540979394756513
    vertex -2.981029396027663 3.7809135241803475 -0.4625224366667936
    vertex -2.9836310360065714 3.5424815610731066 0.5540979394756739
  endloop
endfacet
facet normal 0.009615731819208065 0.8812509928069616 0.47255076486905173
  outer loop
    vertex -2.9836310360065714 3.5424815610731066 0.5540979394756739
    vertex 2.010687490296444 2.9945148825824908 1.4743634097831089
    vertex 2.0160713408653312 3.4879275263834906 0.5540979394756513
  endloop
endfacet
facet normal 0.009615731819208065 0.8812509928069616 0.47255076486905173
  outer loop
    vertex 2.010687490296444 2.9945148825824908 1.4743634097831089
    vertex -2.9836310360065714 3.5424815610731066 0.5540979394756739
    vertex -2.989014886575504 3.0490689172721126 1.4743634097831089
  endloop
endfacet
facet normal 0.00795363595759913 0.728925235836785 0.6845471059286874
  outer loop
    vertex -2.9968140472154077 2.334300849049451 2.235559403264668
    vertex 2.010687490296444 2.9945148825824908 1.4743634097831089
    vertex -2.989014886575504 3.0490689172721126 1.4743634097831089
  endloop
endfacet
facet normal 0.00795363595759913 0.728925235836785 0.6845471059286874
  outer loop
    vertex 2.010687490296444 2.9945148825824908 1.4743634097831089
    vertex -2.9968140472154077 2.334300849049451 2.235559403264668
    vertex 2.0028883296565403 2.2797468143598345 2.235559403264657
  endloop
endfacet
facet normal -0.007468961312701083 -0.684506358518497 0.7289686274214112
  outer loop
    vertex 1.9414726594624012 -3.3488024578240765 1.6737220548688325
    vertex -3.051727882968843 -2.6983761417848786 2.2333166822008477
    vertex -3.0582297174095467 -3.2942484231344604 1.6737220548688312
  endloop
endfacet
facet normal -0.007468961312701083 -0.684506358518497 0.7289686274214112
  outer loop
    vertex -3.051727882968843 -2.6983761417848786 2.2333166822008477
    vertex 1.9414726594624012 -3.3488024578240765 1.6737220548688325
    vertex 1.947974493903105 -2.7529301764744942 2.233316682200834
  endloop
endfacet
facet normal -0.009273015091128224 -0.849842103442506 0.526955795496678
  outer loop
    vertex 1.9414726594624012 -3.3488024578240765 1.6737220548688325
    vertex -3.0642334136688922 -3.8444679372100095 0.7862559987790743
    vertex 1.9354689632030107 -3.8990219718996033 0.7862559987790488
  endloop
endfacet
facet normal -0.009273015091128224 -0.849842103442506 0.526955795496678
  outer loop
    vertex -3.0642334136688922 -3.8444679372100095 0.7862559987790743
    vertex 1.9414726594624012 -3.3488024578240765 1.6737220548688325
    vertex -3.0582297174095467 -3.2942484231344604 1.6737220548688312
  endloop
endfacet
facet normal -0.010445128215479988 -0.9572625134473871 0.2890317969444771
  outer loop
    vertex 1.9354689632030107 -3.8990219718996033 0.7862559987790488
    vertex -3.0675264016822372 -4.146259731182529 -0.21338615122791213
    vertex 1.9321759751896654 -4.200813765872157 -0.21338615122792481
  endloop
endfacet
facet normal -0.010445128215479988 -0.9572625134473871 0.2890317969444771
  outer loop
    vertex -3.0675264016822372 -4.146259731182529 -0.21338615122791213
    vertex 1.9354689632030107 -3.8990219718996033 0.7862559987790488
    vertex -3.0642334136688922 -3.8444679372100095 0.7862559987790743
  endloop
endfacet
facet normal -0.010905423113340473 -0.9994470651119325 0.031410759078119486
  outer loop
    vertex 1.9321759751896654 -4.200813765872157 -0.21338615122792481
    vertex -3.0678842697584985 -4.179057193027345 -1.257080434615908
    vertex 1.9318181071134495 -4.233611227716972 -1.2570804346159192
  endloop
endfacet
facet normal -0.010905423113340473 -0.9994470651119325 0.031410759078119486
  outer loop
    vertex -3.0678842697584985 -4.179057193027345 -1.257080434615908
    vertex 1.9321759751896654 -4.200813765872157 -0.21338615122792481
    vertex -3.0675264016822372 -4.146259731182529 -0.21338615122791213
  endloop
endfacet
facet normal -0.01062253144808654 -0.9735209509534664 -0.22835087011065514
  outer loop
    vertex 1.9318181071134495 -4.233611227716972 -1.2570804346159192
    vertex -3.0652826297795 -3.940625229920109 -2.2737008107583696
    vertex 1.9344197470924032 -3.9951792646097313 -2.2737008107583865
  endloop
endfacet
facet normal -0.01062253144808654 -0.9735209509534664 -0.22835087011065514
  outer loop
    vertex -3.0652826297795 -3.940625229920109 -2.2737008107583696
    vertex 1.9318181071134495 -4.233611227716972 -1.2570804346159192
    vertex -3.0678842697584985 -4.179057193027345 -1.257080434615908
  endloop
endfacet
facet normal -0.009615731819209042 -0.8812509928069618 -0.47255076486905134
  outer loop
    vertex 1.9344197470924032 -3.9951792646097313 -2.2737008107583865
    vertex -3.059898779210567 -3.447212586119121 -3.193966281065802
    vertex 1.939803597661336 -3.5017666208087377 -3.193966281065827
  endloop
endfacet
facet normal -0.009615731819209042 -0.8812509928069618 -0.47255076486905134
  outer loop
    vertex -3.059898779210567 -3.447212586119121 -3.193966281065802
    vertex 1.9344197470924032 -3.9951792646097313 -2.2737008107583865
    vertex -3.0652826297795 -3.940625229920109 -2.2737008107583696
  endloop
endfacet
facet normal -0.007953635957602711 -0.7289252358367772 -0.6845471059286956
  outer loop
    vertex 1.939803597661336 -3.5017666208087377 -3.193966281065827
    vertex -3.0520996185707086 -2.7324445178964605 -3.9551622745473303
    vertex 1.9476027583011943 -2.786998552586076 -3.9551622745473756
  endloop
endfacet
facet normal -0.007953635957602711 -0.7289252358367772 -0.6845471059286956
  outer loop
    vertex -3.0520996185707086 -2.7324445178964605 -3.9551622745473303
    vertex 1.939803597661336 -3.5017666208087377 -3.193966281065827
    vertex -3.059898779210567 -3.447212586119121 -3.193966281065802
  endloop
endfacet
facet normal -0.005749512949490096 -0.5269244286502393 -0.8498926929868633
  outer loop
    vertex -3.0424166477687264 -1.845031287891422 -4.505414542183099
    vertex 1.9476027583011943 -2.786998552586076 -3.9551622745473756
    vertex -3.0520996185707086 -2.7324445178964605 -3.9551622745473303
  endloop
endfacet
facet normal -0.005749512949490096 -0.5269244286502393 -0.8498926929868633
  outer loop
    vertex 1.9476027583011943 -2.786998552586076 -3.9551622745473756
    vertex -3.0424166477687264 -1.845031287891422 -4.505414542183099
    vertex 1.9572857291031764 -1.8995853225810437 -4.5054145421831215
  endloop
endfacet
facet normal -0.0031535701353872466 -0.2890145924349702 -0.9573194975320671
  outer loop
    vertex -3.031509745263011 -0.8454486412091484 -4.807224301268548
    vertex 1.9572857291031764 -1.8995853225810437 -4.5054145421831215
    vertex -3.0424166477687264 -1.845031287891422 -4.505414542183099
  endloop
endfacet
facet normal -0.0031535701353872466 -0.2890145924349702 -0.9573194975320671
  outer loop
    vertex 1.9572857291031764 -1.8995853225810437 -4.5054145421831215
    vertex -3.031509745263011 -0.8454486412091484 -4.807224301268548
    vertex 1.9681926316088918 -0.9000026758987745 -4.8072243012685725
  endloop
endfacet
facet normal -0.00034271672808042274 -0.031408889364450895 -0.9995065603657317
  outer loop
    vertex -3.020122198434778 0.19818351666737047 -4.840023715486218
    vertex 1.9681926316088918 -0.9000026758987745 -4.8072243012685725
    vertex -3.031509745263011 -0.8454486412091484 -4.807224301268548
  endloop
endfacet
facet normal -0.00034271672808042274 -0.031408889364450895 -0.9995065603657317
  outer loop
    vertex 1.9681926316088918 -0.9000026758987745 -4.8072243012685725
    vertex -3.020122198434778 0.19818351666737047 -4.840023715486218
    vertex 1.9795801784371698 0.14362948197775707 -4.840023715486247
  endloop
endfacet
facet normal 0.002491492257879002 0.22833727761060196 -0.9735789028731611
  outer loop
    vertex -3.0090300497814844 1.2147433788625661 -4.601577558960789
    vertex 1.9795801784371698 0.14362948197775707 -4.840023715486247
    vertex -3.020122198434778 0.19818351666737047 -4.840023715486218
  endloop
endfacet
facet normal 0.002491492257879002 0.22833727761060196 -0.9735789028731611
  outer loop
    vertex 1.9795801784371698 0.14362948197775707 -4.840023715486247
    vertex -3.0090300497814844 1.2147433788625661 -4.601577558960789
    vertex 1.9906723270904185 1.1601893441729556 -4.601577558960811
  endloop
endfacet
facet normal 0.005155910163848749 0.4725226364616926 -0.8813034520649929
  outer loop
    vertex -2.998989210903331 2.1349540707124244 -4.108135543208542
    vertex 1.9906723270904185 1.1601893441729556 -4.601577558960811
    vertex -3.0090300497814844 1.2147433788625661 -4.601577558960789
  endloop
endfacet
facet normal 0.005155910163848749 0.4725226364616926 -0.8813034520649929
  outer loop
    vertex 1.9906723270904185 1.1601893441729556 -4.601577558960811
    vertex -2.998989210903331 2.1349540707124244 -4.108135543208542
    vertex 2.0007131659685715 2.080400036022814 -4.108135543208576
  endloop
endfacet
facet normal 0.0074689613126981795 0.6845063585184927 -0.7289686274214153
  outer loop
    vertex -2.9906839483765246 2.896104754287453 -3.393324926151537
    vertex 2.0007131659685715 2.080400036022814 -4.108135543208576
    vertex -2.998989210903331 2.1349540707124244 -4.108135543208542
  endloop
endfacet
facet normal 0.0074689613126981795 0.6845063585184927 -0.7289686274214153
  outer loop
    vertex 2.0007131659685715 2.080400036022814 -4.108135543208576
    vertex -2.9906839483765246 2.896104754287453 -3.393324926151537
    vertex 2.0090184284953785 2.841550719597837 -3.393324926151551
  endloop
endfacet
facet normal -4.861912970962522e-06 -0.00044557873650675166 0.9999999007179708
  outer loop
    vertex 1.9259243722841264 -4.773753129287231 49.23242080542337
    vertex -2.975220945415705 4.313239400629815 49.236445947531124
    vertex -3.0737780045878216 -4.719199094597614 49.23242080542339
  endloop
endfacet
facet normal -4.861912970962522e-06 -0.00044557873650675166 0.9999999007179708
  outer loop
    vertex -2.975220945415705 4.313239400629815 49.236445947531124
    vertex 1.9259243722841264 -4.773753129287231 49.23242080542337
    vertex 2.0244814314562882 4.2586853659401935 49.236445947531124
  endloop
endfacet
facet normal -0.010767392197300038 -0.9867969741897583 0.16160382110336136
  outer loop
    vertex 1.9948940106294801 1.5470931056273032 44.42941768513163
    vertex -3.023283285464324 -0.09151997501453728 34.08924688038945
    vertex 1.9764190914078048 -0.14607400970415352 34.08924688038944
  endloop
endfacet
facet normal -0.010767392197300038 -0.9867969741897583 0.16160382110336136
  outer loop
    vertex -3.023283285464324 -0.09151997501453728 34.08924688038945
    vertex 1.9948940106294801 1.5470931056273032 44.42941768513163
    vertex -3.0048083662426484 1.6016471403169192 44.42941768513163
  endloop
endfacet
facet normal 0.010683695200824288 0.9791264127986505 0.20297124529573718
  outer loop
    vertex -3.023283285464324 -0.09151997501453728 34.08924688038945
    vertex 1.9527586913023223 -2.3144738231744073 44.55077953879918
    vertex 1.9764190914078048 -0.14607400970415352 34.08924688038944
  endloop
endfacet
facet normal 0.010683695200824288 0.9791264127986505 0.20297124529573718
  outer loop
    vertex 1.9527586913023223 -2.3144738231744073 44.55077953879918
    vertex -3.023283285464324 -0.09151997501453728 34.08924688038945
    vertex -3.046943685569761 -2.2599197884847912 44.55077953879918
  endloop
endfacet
facet normal -0.010767392197300427 -0.9867969741897579 0.16160382110336313
  outer loop
    vertex 1.9958146004249948 1.6314622089563895 44.9446597608643
    vertex -3.0048083662426484 1.6016471403169192 44.42941768513163
    vertex 1.9948940106294801 1.5470931056273032 44.42941768513163
  endloop
endfacet
facet normal -0.010767392197300427 -0.9867969741897579 0.16160382110336313
  outer loop
    vertex -3.0048083662426484 1.6016471403169192 44.42941768513163
    vertex 1.9958146004249948 1.6314622089563895 44.9446597608643
    vertex -3.003887776446953 1.6860162436460058 44.9446597608643
  endloop
endfacet
facet normal 0.010856859216351995 0.9949963396509649 0.09931974974363443
  outer loop
    vertex -3.0475094689002753 -2.311772016801726 45.07030279717681
    vertex 1.9527586913023223 -2.3144738231744073 44.55077953879918
    vertex -3.046943685569761 -2.2599197884847912 44.55077953879918
  endloop
endfacet
facet normal 0.010856859216351995 0.9949963396509649 0.09931974974363443
  outer loop
    vertex 1.9527586913023223 -2.3144738231744073 44.55077953879918
    vertex -3.0475094689002753 -2.311772016801726 45.07030279717681
    vertex 1.9521929079716729 -2.3663260514913422 45.07030279717681
  endloop
endfacet
facet normal 0.01076739219730003 0.9867969741897549 -0.16160382110338242
  outer loop
    vertex -3.0465888791045797 -2.2274029134726367 45.58554487290945
    vertex 1.9521929079716729 -2.3663260514913422 45.07030279717681
    vertex -3.0475094689002753 -2.311772016801726 45.07030279717681
  endloop
endfacet
facet normal 0.01076739219730003 0.9867969741897549 -0.16160382110338242
  outer loop
    vertex 1.9521929079716729 -2.3663260514913422 45.07030279717681
    vertex -3.0465888791045797 -2.2274029134726367 45.58554487290945
    vertex 1.9531134977673683 -2.2819569481622475 45.58554487290945
  endloop
endfacet
facet normal 0.009944145193959595 0.9113490256966339 -0.411514358605089
  outer loop
    vertex -3.0442446528558946 -2.012562093462869 46.0613928700139
    vertex 1.9531134977673683 -2.2819569481622475 45.58554487290945
    vertex -3.0465888791045797 -2.2274029134726367 45.58554487290945
  endloop
endfacet
facet normal 0.009944145193959595 0.9113490256966339 -0.411514358605089
  outer loop
    vertex 1.9531134977673683 -2.2819569481622475 45.58554487290945
    vertex -3.0442446528558946 -2.012562093462869 46.0613928700139
    vertex 1.9554577240160536 -2.0671161281524855 46.0613928700139
  endloop
endfacet
facet normal 0.008443221129127904 0.7737941471777363 -0.633380872627556
  outer loop
    vertex -3.0406365452990167 -1.6818906036148495 46.46541853386336
    vertex 1.9554577240160536 -2.0671161281524855 46.0613928700139
    vertex -3.0442446528558946 -2.012562093462869 46.0613928700139
  endloop
endfacet
facet normal 0.008443221129127904 0.7737941471777363 -0.633380872627556
  outer loop
    vertex 1.9554577240160536 -2.0671161281524855 46.0613928700139
    vertex -3.0406365452990167 -1.6818906036148495 46.46541853386336
    vertex 1.9590658315729312 -1.7364446383044656 46.46541853386336
  endloop
endfacet
facet normal 0.006366905497428367 0.5835064762839747 -0.8120835268918131
  outer loop
    vertex -3.0360104430013015 -1.25792315950124 46.77008818315051
    vertex 1.9590658315729312 -1.7364446383044656 46.46541853386336
    vertex -3.0406365452990167 -1.6818906036148495 46.46541853386336
  endloop
endfacet
facet normal 0.006366905497428367 0.5835064762839747 -0.8120835268918131
  outer loop
    vertex 1.9590658315729312 -1.7364446383044656 46.46541853386336
    vertex -3.0360104430013015 -1.25792315950124 46.77008818315051
    vertex 1.9636919338706464 -1.3124771941908562 46.77008818315051
  endloop
endfacet
facet normal 0.003856695777889763 0.35345380332167486 -0.9354440308298084
  outer loop
    vertex -3.0306816071893836 -0.7695524417990711 46.95463908476694
    vertex 1.9636919338706464 -1.3124771941908562 46.77008818315051
    vertex -3.0360104430013015 -1.25792315950124 46.77008818315051
  endloop
endfacet
facet normal 0.003856695777889763 0.35345380332167486 -0.9354440308298084
  outer loop
    vertex 1.9636919338706464 -1.3124771941908562 46.77008818315051
    vertex -3.0306816071893836 -0.7695524417990711 46.95463908476694
    vertex 1.9690207696825643 -0.8241064764886874 46.95463908476694
  endloop
endfacet
facet normal 0.001083658614569105 0.0993138377723213 -0.9950555699612661
  outer loop
    vertex -3.0250131892174768 -0.2500601078489348 47.00649439975189
    vertex 1.9690207696825643 -0.8241064764886874 46.95463908476694
    vertex -3.0306816071893836 -0.7695524417990711 46.95463908476694
  endloop
endfacet
facet normal 0.001083658614569105 0.0993138377723213 -0.9950555699612661
  outer loop
    vertex 1.9690207696825643 -0.8241064764886874 46.95463908476694
    vertex -3.0250131892174768 -0.2500601078489348 47.00649439975189
    vertex 1.9746891876544714 -0.304614142538551 47.006494399751865
  endloop
endfacet
facet normal -0.0017632280924888063 -0.16159420169614883 -0.9868557164068505
  outer loop
    vertex -3.01939148240287 0.26515129829208156 46.92212027408469
    vertex 1.9746891876544714 -0.304614142538551 47.006494399751865
    vertex -3.0250131892174768 -0.2500601078489348 47.00649439975189
  endloop
endfacet
facet normal -0.0017632280924888063 -0.16159420169614883 -0.9868557164068505
  outer loop
    vertex 1.9746891876544714 -0.304614142538551 47.006494399751865
    vertex -3.01939148240287 0.26515129829208156 46.92212027408469
    vertex 1.9803108944690782 0.21059726360246533 46.92212027408469
  endloop
endfacet
facet normal -0.0044899537189229954 -0.4114898633669189 -0.911403276635473
  outer loop
    vertex -3.0141995967746404 0.7409709707226204 46.70726666499432
    vertex 1.9803108944690782 0.21059726360246533 46.92212027408469
    vertex -3.01939148240287 0.26515129829208156 46.92212027408469
  endloop
endfacet
facet normal -0.0044899537189229954 -0.4114898633669189 -0.911403276635473
  outer loop
    vertex 1.9803108944690782 0.21059726360246533 46.92212027408469
    vertex -3.0141995967746404 0.7409709707226204 46.70726666499432
    vertex 1.9855027800973073 0.6864169360330042 46.70726666499432
  endloop
endfacet
facet normal -0.00691069641941324 -0.633343170868301 -0.7738402097264557
  outer loop
    vertex -3.009791350758418 1.1449725850957069 46.37657549087792
    vertex 1.9855027800973073 0.6864169360330042 46.70726666499432
    vertex -3.0141995967746404 0.7409709707226204 46.70726666499432
  endloop
endfacet
facet normal -0.00691069641941324 -0.633343170868301 -0.7738402097264557
  outer loop
    vertex 1.9855027800973073 0.6864169360330042 46.70726666499432
    vertex -3.009791350758418 1.1449725850957069 46.37657549087792
    vertex 1.98991102611353 1.0904185504060906 46.37657549087792
  endloop
endfacet
facet normal -0.008860486579384357 -0.8120351879239089 -0.583541211356112
  outer loop
    vertex 1.98991102611353 1.0904185504060906 46.37657549087792
    vertex -3.0064671590351963 1.4496240990360627 45.95258280875864
    vertex 1.9932352178367518 1.3950700643464464 45.95258280875864
  endloop
endfacet
facet normal -0.008860486579384357 -0.8120351879239089 -0.583541211356112
  outer loop
    vertex -3.0064671590351963 1.4496240990360627 45.95258280875864
    vertex 1.98991102611353 1.0904185504060906 46.37657549087792
    vertex -3.009791350758418 1.1449725850957069 46.37657549087792
  endloop
endfacet
facet normal -0.010206449221617637 -0.935388348874146 -0.35347484377927907
  outer loop
    vertex 1.9932352178367518 1.3950700643464464 45.95258280875864
    vertex -3.004453559777422 1.6341640153290709 45.464183019241894
    vertex 1.9952488170944809 1.5796099806394517 45.464183019241894
  endloop
endfacet
facet normal -0.010206449221617637 -0.935388348874146 -0.35347484377927907
  outer loop
    vertex -3.004453559777422 1.6341640153290709 45.464183019241894
    vertex 1.9932352178367518 1.3950700643464464 45.95258280875864
    vertex -3.0064671590351963 1.4496240990360627 45.95258280875864
  endloop
endfacet
facet normal -0.010856859216352462 -0.9949963396509642 -0.09931974974364165
  outer loop
    vertex 1.9952488170944809 1.5796099806394517 45.464183019241894
    vertex -3.003887776446953 1.6860162436460058 44.9446597608643
    vertex 1.9958146004249948 1.6314622089563895 44.9446597608643
  endloop
endfacet
facet normal -0.010856859216352462 -0.9949963396509642 -0.09931974974364165
  outer loop
    vertex -3.003887776446953 1.6860162436460058 44.9446597608643
    vertex 1.9952488170944809 1.5796099806394517 45.464183019241894
    vertex -3.004453559777422 1.6341640153290709 45.464183019241894
  endloop
endfacet
facet normal 0.01091080585467621 0.9999403760982717 0.00044560526100113305
  outer loop
    vertex -2.9968140472154077 2.334300849049451 2.235559403264668
    vertex 2.002759741173351 2.267962092125979 28.683682031423047
    vertex 2.0028883296565403 2.2797468143598345 2.235559403264657
  endloop
endfacet
facet normal 0.01091080585467621 0.9999403760982717 0.00044560526100113305
  outer loop
    vertex 2.002759741173351 2.267962092125979 28.683682031423047
    vertex -2.9968140472154077 2.334300849049451 2.235559403264668
    vertex -2.996942635698597 2.322516126815595 28.683682031423036
  endloop
endfacet
facet normal 0.010910805854678369 0.9999403760982717 0.0004456052610007471
  outer loop
    vertex -2.9751442268011403 4.320270415694605 33.45693541313985
    vertex 2.0244814314562882 4.2586853659401935 49.236445947531124
    vertex 2.0245581500708525 4.265716381004971 33.45693541313984
  endloop
endfacet
facet normal 0.010910805854678369 0.9999403760982717 0.0004456052610007471
  outer loop
    vertex 2.0244814314562882 4.2586853659401935 49.236445947531124
    vertex -2.9751442268011403 4.320270415694605 33.45693541313985
    vertex -2.975220945415705 4.313239400629815 49.236445947531124
  endloop
endfacet
facet normal -0.010910805854675578 -0.9999403760982717 -0.0004456052610015592
  outer loop
    vertex 1.9478446293186211 -2.764831849298102 28.94390824917642
    vertex -3.051727882968843 -2.6983761417848786 2.2333166822008477
    vertex 1.947974493903105 -2.7529301764744942 2.233316682200834
  endloop
endfacet
facet normal -0.010910805854675578 -0.9999403760982717 -0.0004456052610015592
  outer loop
    vertex -3.051727882968843 -2.6983761417848786 2.2333166822008477
    vertex 1.9478446293186211 -2.764831849298102 28.94390824917642
    vertex -3.051857747553327 -2.710277814608492 28.94390824917642
  endloop
endfacet
facet normal -0.010910805854675083 -0.9999403760982717 -0.0004456052610006015
  outer loop
    vertex 1.9259243722841264 -4.773753129287231 49.23242080542337
    vertex -3.073702865256683 -4.712312815795652 33.777737819079725
    vertex 1.925999511615265 -4.766866850485257 33.777737819079704
  endloop
endfacet
facet normal -0.010910805854675083 -0.9999403760982717 -0.0004456052610006015
  outer loop
    vertex -3.073702865256683 -4.712312815795652 33.777737819079725
    vertex 1.9259243722841264 -4.773753129287231 49.23242080542337
    vertex -3.0737780045878216 -4.719199094597614 49.23242080542339
  endloop
endfacet
facet normal -0.010080332840205285 -0.9238301868519939 -0.38266979597407563
  outer loop
    vertex 1.925999511615265 -4.766866850485257 33.777737819079704
    vertex -3.051857747553327 -2.710277814608492 28.94390824917642
    vertex 1.9478446293186211 -2.764831849298102 28.94390824917642
  endloop
endfacet
facet normal -0.010080332840205285 -0.9238301868519939 -0.38266979597407563
  outer loop
    vertex -3.051857747553327 -2.710277814608492 28.94390824917642
    vertex 1.925999511615265 -4.766866850485257 33.777737819079704
    vertex -3.073702865256683 -4.712312815795652 33.777737819079725
  endloop
endfacet
facet normal 0.010064750412598779 0.922402107319543 -0.38609979695876345
  outer loop
    vertex -2.9751442268011403 4.320270415694605 33.45693541313985
    vertex 2.002759741173351 2.267962092125979 28.683682031423047
    vertex -2.996942635698597 2.322516126815595 28.683682031423036
  endloop
endfacet
facet normal 0.010064750412598779 0.922402107319543 -0.38609979695876345
  outer loop
    vertex 2.002759741173351 2.267962092125979 28.683682031423047
    vertex -2.9751442268011403 4.320270415694605 33.45693541313985
    vertex 2.0245581500708525 4.265716381004971 33.45693541313984
  endloop
endfacet
facet normal -0.9999404753743912 0.010910806937923005 2.1447782793174882e-15
  outer loop
    vertex -3.0642334136688922 -3.8444679372100095 0.7862559987790743
    vertex -3.060508531081535 -3.5030943902015976 -0.3329099564916064
    vertex -3.060857731261655 -3.5350974671596616 -1.178113939575101
  endloop
endfacet
facet normal -0.9999404753743912 0.010910806937923005 2.1447782793174882e-15
  outer loop
    vertex -3.060508531081535 -3.5030943902015976 -0.3329099564916064
    vertex -3.0642334136688922 -3.8444679372100095 0.7862559987790743
    vertex -3.0582297174095467 -3.2942484231344604 1.6737220548688312
  endloop
endfacet
facet normal -0.9999404753743912 0.010910806937923005 2.1447782793174882e-15
  outer loop
    vertex -3.060508531081535 -3.5030943902015976 -0.3329099564916064
    vertex -3.0582297174095467 -3.2942484231344604 1.6737220548688312
    vertex -3.057784437261295 -3.2534399251313677 0.47521090036033087
  endloop
endfacet
facet normal -0.9999404753743912 0.010910806937923005 2.1447782793174882e-15
  outer loop
    vertex -3.057784437261295 -3.2534399251313677 0.47521090036033087
    vertex -3.0582297174095467 -3.2942484231344604 1.6737220548688312
    vertex -3.051727882968843 -2.6983761417848786 2.2333166822008477
  endloop
endfacet
facet normal -0.9999404753743912 0.010910806937923005 2.1447782793174882e-15
  outer loop
    vertex -3.057784437261295 -3.2534399251313677 0.47521090036033087
    vertex -3.051727882968843 -2.6983761417848786 2.2333166822008477
    vertex -3.052871092293009 -2.8031476111699973 1.191176530069111
  endloop
endfacet
facet normal -0.9999404753743912 0.010910806937923005 2.1447782793174882e-15
  outer loop
    vertex -3.052871092293009 -2.8031476111699973 1.191176530069111
    vertex -3.051727882968843 -2.6983761417848786 2.2333166822008477
    vertex -3.046103332516579 -2.1829041253707167 1.7661950581592278
  endloop
endfacet
facet normal -0.9999404753743912 0.010910806937923005 2.1447782793174882e-15
  outer loop
    vertex -3.046103332516579 -2.1829041253707167 1.7661950581592278
    vertex -3.051727882968843 -2.6983761417848786 2.2333166822008477
    vertex -3.0475094689002753 -2.311772016801726 45.07030279717681
  endloop
endfacet
facet normal -0.9999404753743912 0.010910806937923005 2.1447782793174882e-15
  outer loop
    vertex -3.046103332516579 -2.1829041253707167 1.7661950581592278
    vertex -3.0475094689002753 -2.311772016801726 45.07030279717681
    vertex -3.046943685569761 -2.2599197884847912 44.55077953879918
  endloop
endfacet
facet normal -0.9999404753743912 0.010910806937923005 2.1447782793174882e-15
  outer loop
    vertex -3.046103332516579 -2.1829041253707167 1.7661950581592278
    vertex -3.046943685569761 -2.2599197884847912 44.55077953879918
    vertex -3.023283285464324 -0.09151997501453728 34.08924688038945
  endloop
endfacet
facet normal -0.9999404753743912 0.010910806937923005 2.1447782793174882e-15
  outer loop
    vertex -3.046103332516579 -2.1829041253707167 1.7661950581592278
    vertex -3.023283285464324 -0.09151997501453728 34.08924688038945
    vertex -3.0379423695765153 -1.4349780362899323 2.161079922204387
  endloop
endfacet
facet normal -0.9999404753743912 0.010910806937923005 2.1447782793174882e-15
  outer loop
    vertex -3.0379423695765153 -1.4349780362899323 2.161079922204387
    vertex -3.023283285464324 -0.09151997501453728 34.08924688038945
    vertex -3.0289443596105583 -0.6103392708921879 2.348920371298001
  endloop
endfacet
facet normal -0.9999404753743912 0.010910806937923005 2.1447782793174882e-15
  outer loop
    vertex -3.0289443596105583 -0.6103392708921879 2.348920371298001
    vertex -3.023283285464324 -0.09151997501453728 34.08924688038945
    vertex -3.0197225021279706 0.23481440174064938 2.316915389255363
  endloop
endfacet
facet normal -0.9999404753743912 0.010910806937923005 2.1447782793174882e-15
  outer loop
    vertex -3.0197225021279706 0.23481440174064938 2.316915389255363
    vertex -3.023283285464324 -0.09151997501453728 34.08924688038945
    vertex -3.0048083662426484 1.6016471403169192 44.42941768513163
  endloop
endfacet
facet normal -0.9999404753743912 0.010910806937923005 2.1447782793174882e-15
  outer loop
    vertex -3.0197225021279706 0.23481440174064938 2.316915389255363
    vertex -3.0048083662426484 1.6016471403169192 44.42941768513163
    vertex -3.0109052514763466 1.0428871555011374 2.067246062711942
  endloop
endfacet
facet normal -0.9999404753743912 0.010910806937923005 2.1447782793174882e-15
  outer loop
    vertex -3.0109052514763466 1.0428871555011374 2.067246062711942
    vertex -3.0048083662426484 1.6016471403169192 44.42941768513163
    vertex -3.0030934887164062 1.7588101676238608 1.616926943673608
  endloop
endfacet
facet normal -0.9999404753743912 0.010910806937923005 2.1447782793174882e-15
  outer loop
    vertex -3.0030934887164062 1.7588101676238608 1.616926943673608
    vertex -3.0048083662426484 1.6016471403169192 44.42941768513163
    vertex -3.003887776446953 1.6860162436460058 44.9446597608643
  endloop
endfacet
facet normal -0.9999404753743912 0.010910806937923005 2.1447782793174882e-15
  outer loop
    vertex -3.0737780045878216 -4.719199094597614 49.23242080542339
    vertex -3.0465888791045797 -2.2274029134726367 45.58554487290945
    vertex -3.073702865256683 -4.712312815795652 33.777737819079725
  endloop
endfacet
facet normal -0.9999404753743912 0.010910806937923005 2.1447782793174882e-15
  outer loop
    vertex -3.0465888791045797 -2.2274029134726367 45.58554487290945
    vertex -3.0737780045878216 -4.719199094597614 49.23242080542339
    vertex -3.0442446528558946 -2.012562093462869 46.0613928700139
  endloop
endfacet
facet normal -0.9999404753743912 0.010910806937923005 2.1447782793174882e-15
  outer loop
    vertex -3.0442446528558946 -2.012562093462869 46.0613928700139
    vertex -3.0737780045878216 -4.719199094597614 49.23242080542339
    vertex -3.0406365452990167 -1.6818906036148495 46.46541853386336
  endloop
endfacet
facet normal -0.9999404753743912 0.010910806937923005 2.1447782793174882e-15
  outer loop
    vertex -3.0406365452990167 -1.6818906036148495 46.46541853386336
    vertex -3.0737780045878216 -4.719199094597614 49.23242080542339
    vertex -3.0360104430013015 -1.25792315950124 46.77008818315051
  endloop
endfacet
facet normal -0.9999404753743912 0.010910806937923005 2.1447782793174882e-15
  outer loop
    vertex -3.0360104430013015 -1.25792315950124 46.77008818315051
    vertex -3.0737780045878216 -4.719199094597614 49.23242080542339
    vertex -2.975220945415705 4.313239400629815 49.236445947531124
  endloop
endfacet
facet normal -0.9999404753743912 0.010910806937923005 2.1447782793174882e-15
  outer loop
    vertex -3.073702865256683 -4.712312815795652 33.777737819079725
    vertex -3.0465888791045797 -2.2274029134726367 45.58554487290945
    vertex -3.0475094689002753 -2.311772016801726 45.07030279717681
  endloop
endfacet
facet normal -0.9999404753743912 0.010910806937923005 2.1447782793174882e-15
  outer loop
    vertex -3.073702865256683 -4.712312815795652 33.777737819079725
    vertex -3.0475094689002753 -2.311772016801726 45.07030279717681
    vertex -3.051857747553327 -2.710277814608492 28.94390824917642
  endloop
endfacet
facet normal -0.9999404753743912 0.010910806937923005 2.1447782793174882e-15
  outer loop
    vertex -3.051857747553327 -2.710277814608492 28.94390824917642
    vertex -3.0475094689002753 -2.311772016801726 45.07030279717681
    vertex -3.051727882968843 -2.6983761417848786 2.2333166822008477
  endloop
endfacet
facet normal -0.9999404753743912 0.010910806937923005 2.1447782793174882e-15
  outer loop
    vertex -3.0360104430013015 -1.25792315950124 46.77008818315051
    vertex -2.975220945415705 4.313239400629815 49.236445947531124
    vertex -3.0306816071893836 -0.7695524417990711 46.95463908476694
  endloop
endfacet
facet normal -0.9999404753743912 0.010910806937923005 2.1447782793174882e-15
  outer loop
    vertex -3.0306816071893836 -0.7695524417990711 46.95463908476694
    vertex -2.975220945415705 4.313239400629815 49.236445947531124
    vertex -3.0250131892174768 -0.2500601078489348 47.00649439975189
  endloop
endfacet
facet normal -0.9999404753743912 0.010910806937923005 2.1447782793174882e-15
  outer loop
    vertex -3.0250131892174768 -0.2500601078489348 47.00649439975189
    vertex -2.975220945415705 4.313239400629815 49.236445947531124
    vertex -3.01939148240287 0.26515129829208156 46.92212027408469
  endloop
endfacet
facet normal -0.9999404753743912 0.010910806937923005 2.1447782793174882e-15
  outer loop
    vertex -3.01939148240287 0.26515129829208156 46.92212027408469
    vertex -2.975220945415705 4.313239400629815 49.236445947531124
    vertex -3.0141995967746404 0.7409709707226204 46.70726666499432
  endloop
endfacet
facet normal -0.9999404753743912 0.010910806937923005 2.1447782793174882e-15
  outer loop
    vertex -3.0141995967746404 0.7409709707226204 46.70726666499432
    vertex -2.975220945415705 4.313239400629815 49.236445947531124
    vertex -3.009791350758418 1.1449725850957069 46.37657549087792
  endloop
endfacet
facet normal -0.9999404753743912 0.010910806937923005 2.1447782793174882e-15
  outer loop
    vertex -3.009791350758418 1.1449725850957069 46.37657549087792
    vertex -2.975220945415705 4.313239400629815 49.236445947531124
    vertex -3.0064671590351963 1.4496240990360627 45.95258280875864
  endloop
endfacet
facet normal -0.9999404753743912 0.010910806937923005 2.1447782793174882e-15
  outer loop
    vertex -3.0064671590351963 1.4496240990360627 45.95258280875864
    vertex -2.975220945415705 4.313239400629815 49.236445947531124
    vertex -3.004453559777422 1.6341640153290709 45.464183019241894
  endloop
endfacet
facet normal -0.9999404753743912 0.010910806937923005 2.1447782793174882e-15
  outer loop
    vertex -3.004453559777422 1.6341640153290709 45.464183019241894
    vertex -2.975220945415705 4.313239400629815 49.236445947531124
    vertex -3.003887776446953 1.6860162436460058 44.9446597608643
  endloop
endfacet
facet normal -0.9999404753743912 0.010910806937923005 2.1447782793174882e-15
  outer loop
    vertex -3.003887776446953 1.6860162436460058 44.9446597608643
    vertex -2.975220945415705 4.313239400629815 49.236445947531124
    vertex -2.996942635698597 2.322516126815595 28.683682031423036
  endloop
endfacet
facet normal -0.9999404753743912 0.010910806937923005 2.1447782793174882e-15
  outer loop
    vertex -3.003887776446953 1.6860162436460058 44.9446597608643
    vertex -2.996942635698597 2.322516126815595 28.683682031423036
    vertex -3.0030934887164062 1.7588101676238608 1.616926943673608
  endloop
endfacet
facet normal -0.9999404753743912 0.010910806937923005 2.1447782793174882e-15
  outer loop
    vertex -2.996942635698597 2.322516126815595 28.683682031423036
    vertex -2.975220945415705 4.313239400629815 49.236445947531124
    vertex -2.9751442268011403 4.320270415694605 33.45693541313985
  endloop
endfacet
facet normal -0.9999404753743912 0.010910806937923005 2.1447782793174882e-15
  outer loop
    vertex -2.996942635698597 2.322516126815595 28.683682031423036
    vertex -2.9968195725706894 2.3337944679513742 0.9966465359152844
    vertex -3.0030934887164062 1.7588101676238608 1.616926943673608
  endloop
endfacet
facet normal -0.9999404753743912 0.010910806937923005 2.1447782793174882e-15
  outer loop
    vertex -2.9968195725706894 2.3337944679513742 0.9966465359152844
    vertex -2.996942635698597 2.322516126815595 28.683682031423036
    vertex -2.9968140472154077 2.334300849049451 2.235559403264668
  endloop
endfacet
facet normal -0.9999404753743912 0.010910806937923005 2.1447782793174882e-15
  outer loop
    vertex -2.9968195725706894 2.3337944679513742 0.9966465359152844
    vertex -2.9968140472154077 2.334300849049451 2.235559403264668
    vertex -2.992511060056386 2.728655826622844 0.24867592416386428
  endloop
endfacet
facet normal -0.9999404753743912 0.010910806937923005 2.1447782793174882e-15
  outer loop
    vertex -2.992511060056386 2.728655826622844 0.24867592416386428
    vertex -2.9968140472154077 2.334300849049451 2.235559403264668
    vertex -2.989014886575504 3.0490689172721126 1.4743634097831089
  endloop
endfacet
facet normal -0.9999404753743912 0.010910806937923005 2.1447782793174882e-15
  outer loop
    vertex -2.992511060056386 2.728655826622844 0.24867592416386428
    vertex -2.989014886575504 3.0490689172721126 1.4743634097831089
    vertex -2.9904615691811944 2.916485094584053 -0.5760119304696704
  endloop
endfacet
facet normal -0.9999404753743912 0.010910806937923005 2.1447782793174882e-15
  outer loop
    vertex -3.0675264016822372 -4.146259731182529 -0.21338615122791213
    vertex -3.0652826297795 -3.940625229920109 -2.2737008107583696
    vertex -3.0678842697584985 -4.179057193027345 -1.257080434615908
  endloop
endfacet
facet normal -0.9999404753743912 0.010910806937923005 2.1447782793174882e-15
  outer loop
    vertex -3.0652826297795 -3.940625229920109 -2.2737008107583696
    vertex -3.0675264016822372 -4.146259731182529 -0.21338615122791213
    vertex -3.0642334136688922 -3.8444679372100095 0.7862559987790743
  endloop
endfacet
facet normal -0.9999404753743912 0.010910806937923005 2.1447782793174882e-15
  outer loop
    vertex -3.0652826297795 -3.940625229920109 -2.2737008107583696
    vertex -3.0642334136688922 -3.8444679372100095 0.7862559987790743
    vertex -3.059898779210567 -3.447212586119121 -3.193966281065802
  endloop
endfacet
facet normal -0.9999404753743912 0.010910806937923005 2.1447782793174882e-15
  outer loop
    vertex -3.059898779210567 -3.447212586119121 -3.193966281065802
    vertex -3.0642334136688922 -3.8444679372100095 0.7862559987790743
    vertex -3.060857731261655 -3.5350974671596616 -1.178113939575101
  endloop
endfacet
facet normal -0.9999404753743912 0.010910806937923005 2.1447782793174882e-15
  outer loop
    vertex -3.059898779210567 -3.447212586119121 -3.193966281065802
    vertex -3.060857731261655 -3.5350974671596616 -1.178113939575101
    vertex -3.0588082403864636 -3.347268199198457 -2.0028017942086334
  endloop
endfacet
facet normal -0.9999404753743912 0.010910806937923005 2.1447782793174882e-15
  outer loop
    vertex -3.059898779210567 -3.447212586119121 -3.193966281065802
    vertex -3.0588082403864636 -3.347268199198457 -2.0028017942086334
    vertex -3.0520996185707086 -2.7324445178964605 -3.9551622745473303
  endloop
endfacet
facet normal -0.9999404753743912 0.010910806937923005 2.1447782793174882e-15
  outer loop
    vertex -3.0520996185707086 -2.7324445178964605 -3.9551622745473303
    vertex -3.0588082403864636 -3.347268199198457 -2.0028017942086334
    vertex -3.05449972787216 -2.9524068405269883 -2.750772405960054
  endloop
endfacet
facet normal -0.9999404753743912 0.010910806937923005 2.1447782793174882e-15
  outer loop
    vertex -3.0520996185707086 -2.7324445178964605 -3.9551622745473303
    vertex -3.05449972787216 -2.9524068405269883 -2.750772405960054
    vertex -3.0482258117264434 -2.3774225401994737 -3.3710528137183764
  endloop
endfacet
facet normal -0.9999404753743912 0.010910806937923005 2.1447782793174882e-15
  outer loop
    vertex -3.0520996185707086 -2.7324445178964605 -3.9551622745473303
    vertex -3.0482258117264434 -2.3774225401994737 -3.3710528137183764
    vertex -3.0424166477687264 -1.845031287891422 -4.505414542183099
  endloop
endfacet
facet normal -0.9999404753743912 0.010910806937923005 2.1447782793174882e-15
  outer loop
    vertex -3.0424166477687264 -1.845031287891422 -4.505414542183099
    vertex -3.0482258117264434 -2.3774225401994737 -3.3710528137183764
    vertex -3.0404140489665035 -1.6614995280767535 -3.8213719327567137
  endloop
endfacet
facet normal -0.9999404753743912 0.010910806937923005 2.1447782793174882e-15
  outer loop
    vertex -3.0424166477687264 -1.845031287891422 -4.505414542183099
    vertex -3.0404140489665035 -1.6614995280767535 -3.8213719327567137
    vertex -3.031509745263011 -0.8454486412091484 -4.807224301268548
  endloop
endfacet
facet normal -0.9999404753743912 0.010910806937923005 2.1447782793174882e-15
  outer loop
    vertex -3.031509745263011 -0.8454486412091484 -4.807224301268548
    vertex -3.0404140489665035 -1.6614995280767535 -3.8213719327567137
    vertex -3.03159679831488 -0.8534267743162669 -4.071041259300136
  endloop
endfacet
facet normal -0.9999404753743912 0.010910806937923005 2.1447782793174882e-15
  outer loop
    vertex -3.031509745263011 -0.8454486412091484 -4.807224301268548
    vertex -3.03159679831488 -0.8534267743162669 -4.071041259300136
    vertex -3.0223749408322913 -0.008273101683427939 -4.103046241342774
  endloop
endfacet
facet normal -0.9999404753743912 0.010910806937923005 2.1447782793174882e-15
  outer loop
    vertex -3.031509745263011 -0.8454486412091484 -4.807224301268548
    vertex -3.0223749408322913 -0.008273101683427939 -4.103046241342774
    vertex -3.020122198434778 0.19818351666737047 -4.840023715486218
  endloop
endfacet
facet normal -0.9999404753743912 0.010910806937923005 2.1447782793174882e-15
  outer loop
    vertex -3.020122198434778 0.19818351666737047 -4.840023715486218
    vertex -3.0223749408322913 -0.008273101683427939 -4.103046241342774
    vertex -3.0133769308663343 0.8163656637143151 -3.915205792249158
  endloop
endfacet
facet normal -0.9999404753743912 0.010910806937923005 2.1447782793174882e-15
  outer loop
    vertex -3.020122198434778 0.19818351666737047 -4.840023715486218
    vertex -3.0133769308663343 0.8163656637143151 -3.915205792249158
    vertex -3.0090300497814844 1.2147433788625661 -4.601577558960789
  endloop
endfacet
facet normal -0.9999404753743912 0.010910806937923005 2.1447782793174882e-15
  outer loop
    vertex -3.0090300497814844 1.2147433788625661 -4.601577558960789
    vertex -3.0133769308663343 0.8163656637143151 -3.915205792249158
    vertex -3.0052159679262713 1.5642917527951048 -3.5203209282040016
  endloop
endfacet
facet normal -0.9999404753743912 0.010910806937923005 2.1447782793174882e-15
  outer loop
    vertex -3.0090300497814844 1.2147433788625661 -4.601577558960789
    vertex -3.0052159679262713 1.5642917527951048 -3.5203209282040016
    vertex -2.998989210903331 2.1349540707124244 -4.108135543208542
  endloop
endfacet
facet normal -0.9999404753743912 0.010910806937923005 2.1447782793174882e-15
  outer loop
    vertex -2.998989210903331 2.1349540707124244 -4.108135543208542
    vertex -3.0052159679262713 1.5642917527951048 -3.5203209282040016
    vertex -2.9984482081498407 2.1845352385943833 -2.9453024001138837
  endloop
endfacet
facet normal -0.9999404753743912 0.010910806937923005 2.1447782793174882e-15
  outer loop
    vertex -2.998989210903331 2.1349540707124244 -4.108135543208542
    vertex -2.9984482081498407 2.1845352385943833 -2.9453024001138837
    vertex -2.9906839483765246 2.896104754287453 -3.393324926151537
  endloop
endfacet
facet normal -0.9999404753743912 0.010910806937923005 2.1447782793174882e-15
  outer loop
    vertex -2.9906839483765246 2.896104754287453 -3.393324926151537
    vertex -2.9984482081498407 2.1845352385943833 -2.9453024001138837
    vertex -2.993534863181554 2.6348275525557563 -2.229336770405102
  endloop
endfacet
facet normal -0.9999404753743912 0.010910806937923005 2.1447782793174882e-15
  outer loop
    vertex -2.9906839483765246 2.896104754287453 -3.393324926151537
    vertex -2.993534863181554 2.6348275525557563 -2.229336770405102
    vertex -2.9908107693613144 2.884482017625988 -1.4212159135531655
  endloop
endfacet
facet normal -0.9999404753743912 0.010910806937923005 2.1447782793174882e-15
  outer loop
    vertex -2.9906839483765246 2.896104754287453 -3.393324926151537
    vertex -2.9908107693613144 2.884482017625988 -1.4212159135531655
    vertex -2.9904615691811944 2.916485094584053 -0.5760119304696704
  endloop
endfacet
facet normal -0.9999404753743912 0.010910806937923005 2.1447782793174882e-15
  outer loop
    vertex -2.9906839483765246 2.896104754287453 -3.393324926151537
    vertex -2.9904615691811944 2.916485094584053 -0.5760119304696704
    vertex -2.9846802521172244 3.4463242683629955 -2.5058588700617785
  endloop
endfacet
facet normal -0.9999404753743912 0.010910806937923005 2.1447782793174882e-15
  outer loop
    vertex -2.9846802521172244 3.4463242683629955 -2.5058588700617785
    vertex -2.9904615691811944 2.916485094584053 -0.5760119304696704
    vertex -2.989014886575504 3.0490689172721126 1.4743634097831089
  endloop
endfacet
facet normal -0.9999404753743912 0.010910806937923005 2.1447782793174882e-15
  outer loop
    vertex -2.9846802521172244 3.4463242683629955 -2.5058588700617785
    vertex -2.989014886575504 3.0490689172721126 1.4743634097831089
    vertex -2.9836310360065714 3.5424815610731066 0.5540979394756739
  endloop
endfacet
facet normal -0.9999404753743912 0.010910806937923005 2.1447782793174882e-15
  outer loop
    vertex -2.9846802521172244 3.4463242683629955 -2.5058588700617785
    vertex -2.9836310360065714 3.5424815610731066 0.5540979394756739
    vertex -2.981387264103879 3.7481160623355327 -1.5062167200547951
  endloop
endfacet
facet normal -0.9999404753743912 0.010910806937923005 2.1447782793174882e-15
  outer loop
    vertex -2.981387264103879 3.7481160623355327 -1.5062167200547951
    vertex -2.9836310360065714 3.5424815610731066 0.5540979394756739
    vertex -2.981029396027663 3.7809135241803475 -0.4625224366667936
  endloop
endfacet
facet normal 0.9999341564643761 -0.011470373284656478 0.0003365599315023844
  outer loop
    vertex 1.9444020713116121 -3.1430549730018678 -0.40098186163476807
    vertex 1.947974493903105 -2.7529301764744942 2.233316682200834
    vertex 1.9414726594624012 -3.3488024578240765 1.6737220548688325
  endloop
endfacet
facet normal 0.9999341564643761 -0.011470373284656478 0.0003365599315023844
  outer loop
    vertex 1.947974493903105 -2.7529301764744942 2.233316682200834
    vertex 1.9444020713116121 -3.1430549730018678 -0.40098186163476807
    vertex 1.9470769801045418 -2.8979081579954045 0.3925479241906757
  endloop
endfacet
facet normal 0.9999341564643761 -0.011470373284656478 0.0003365599315023844
  outer loop
    vertex 1.947974493903105 -2.7529301764744942 2.233316682200834
    vertex 1.9470769801045418 -2.8979081579954045 0.3925479241906757
    vertex 1.9519016118997894 -2.455746121925003 1.0955863966963808
  endloop
endfacet
facet normal 0.9999403848577199 -0.010919091130577948 1.3396910386539587e-05
  outer loop
    vertex 1.9585471760135893 -1.8467014768415422 1.6602226458070923
    vertex 1.9521929079716729 -2.3663260514913422 45.07030279717681
    vertex 1.9519016118997894 -2.455746121925003 1.0955863966963808
  endloop
endfacet
facet normal 0.9999403848577199 -0.010919091130577948 1.3396910386539587e-05
  outer loop
    vertex 1.9521929079716729 -2.3663260514913422 45.07030279717681
    vertex 1.9585471760135893 -1.8467014768415422 1.6602226458070923
    vertex 1.9527586913023223 -2.3144738231744073 44.55077953879918
  endloop
endfacet
facet normal 0.9999403848577199 -0.010919091130577948 1.3396910386539587e-05
  outer loop
    vertex 1.9527586913023223 -2.3144738231744073 44.55077953879918
    vertex 1.9585471760135893 -1.8467014768415422 1.6602226458070923
    vertex 1.9764190914078048 -0.14607400970415352 34.08924688038944
  endloop
endfacet
facet normal 0.9999403848577199 -0.010919091130577948 1.3396910386539587e-05
  outer loop
    vertex 1.9764190914078048 -0.14607400970415352 34.08924688038944
    vertex 1.9585471760135893 -1.8467014768415422 1.6602226458070923
    vertex 1.9665607882339002 -1.1122796088136018 2.0479776442514352
  endloop
endfacet
facet normal 0.9999403848577199 -0.010919091130577948 1.3396910386539587e-05
  outer loop
    vertex 1.9764190914078048 -0.14607400970415352 34.08924688038944
    vertex 1.9665607882339002 -1.1122796088136018 2.0479776442514352
    vertex 1.9753963341310286 -0.3025301544577621 2.2324265296808603
  endloop
endfacet
facet normal 0.9999403848577199 -0.010919091130577948 1.3396910386539587e-05
  outer loop
    vertex 1.9764190914078048 -0.14607400970415352 34.08924688038944
    vertex 1.9753963341310286 -0.3025301544577621 2.2324265296808603
    vertex 1.984451685853516 0.5273637990858719 2.200999415369547
  endloop
endfacet
facet normal 0.9999403848577199 -0.010919091130577948 1.3396910386539587e-05
  outer loop
    vertex 1.9764190914078048 -0.14607400970415352 34.08924688038944
    vertex 1.984451685853516 0.5273637990858719 2.200999415369547
    vertex 1.9948940106294801 1.5470931056273032 44.42941768513163
  endloop
endfacet
facet normal 0.9999403848577199 -0.010919091130577948 1.3396910386539587e-05
  outer loop
    vertex 1.9948940106294801 1.5470931056273032 44.42941768513163
    vertex 1.984451685853516 0.5273637990858719 2.200999415369547
    vertex 1.9931097361461507 1.3208463503479084 1.95583800722205
  endloop
endfacet
facet normal 0.9999403848577199 -0.010919091130577948 1.3396910386539587e-05
  outer loop
    vertex 1.9948940106294801 1.5470931056273032 44.42941768513163
    vertex 1.9931097361461507 1.3208463503479084 1.95583800722205
    vertex 2.0007804531895927 2.0238429747517475 1.5136496500552408
  endloop
endfacet
facet normal 0.9999403848577199 -0.010919091130577948 1.3396910386539587e-05
  outer loop
    vertex 1.9948940106294801 1.5470931056273032 44.42941768513163
    vertex 2.0007804531895927 2.0238429747517475 1.5136496500552408
    vertex 1.9958146004249948 1.6314622089563895 44.9446597608643
  endloop
endfacet
facet normal 0.9999403848577199 -0.010919091130577948 1.3396910386539587e-05
  outer loop
    vertex 1.9259243722841264 -4.773753129287231 49.23242080542337
    vertex 1.9636919338706464 -1.3124771941908562 46.77008818315051
    vertex 2.0244814314562882 4.2586853659401935 49.236445947531124
  endloop
endfacet
facet normal 0.9999403848577199 -0.010919091130577948 1.3396910386539587e-05
  outer loop
    vertex 1.9636919338706464 -1.3124771941908562 46.77008818315051
    vertex 1.9259243722841264 -4.773753129287231 49.23242080542337
    vertex 1.9590658315729312 -1.7364446383044656 46.46541853386336
  endloop
endfacet
facet normal 0.9999403848577199 -0.010919091130577948 1.3396910386539587e-05
  outer loop
    vertex 1.9590658315729312 -1.7364446383044656 46.46541853386336
    vertex 1.9259243722841264 -4.773753129287231 49.23242080542337
    vertex 1.9554577240160536 -2.0671161281524855 46.0613928700139
  endloop
endfacet
facet normal 0.9999403848577199 -0.010919091130577948 1.3396910386539587e-05
  outer loop
    vertex 1.9554577240160536 -2.0671161281524855 46.0613928700139
    vertex 1.9259243722841264 -4.773753129287231 49.23242080542337
    vertex 1.9531134977673683 -2.2819569481622475 45.58554487290945
  endloop
endfacet
facet normal 0.9999403848577199 -0.010919091130577948 1.3396910386539587e-05
  outer loop
    vertex 1.9531134977673683 -2.2819569481622475 45.58554487290945
    vertex 1.9259243722841264 -4.773753129287231 49.23242080542337
    vertex 1.925999511615265 -4.766866850485257 33.777737819079704
  endloop
endfacet
facet normal 0.9999403848577199 -0.010919091130577948 1.3396910386539587e-05
  outer loop
    vertex 1.9531134977673683 -2.2819569481622475 45.58554487290945
    vertex 1.925999511615265 -4.766866850485257 33.777737819079704
    vertex 1.9521929079716729 -2.3663260514913422 45.07030279717681
  endloop
endfacet
facet normal 0.9999403848577199 -0.010919091130577948 1.3396910386539587e-05
  outer loop
    vertex 1.9521929079716729 -2.3663260514913422 45.07030279717681
    vertex 1.925999511615265 -4.766866850485257 33.777737819079704
    vertex 1.9478446293186211 -2.764831849298102 28.94390824917642
  endloop
endfacet
facet normal 0.9999403848577199 -0.010919091130577948 1.3396910386539587e-05
  outer loop
    vertex 1.9521929079716729 -2.3663260514913422 45.07030279717681
    vertex 1.9478446293186211 -2.764831849298102 28.94390824917642
    vertex 1.947974493903105 -2.7529301764744942 2.233316682200834
  endloop
endfacet
facet normal 0.9999403848577199 -0.010919091130577948 1.3396910386539587e-05
  outer loop
    vertex 2.0244814314562882 4.2586853659401935 49.236445947531124
    vertex 1.9636919338706464 -1.3124771941908562 46.77008818315051
    vertex 1.9690207696825643 -0.8241064764886874 46.95463908476694
  endloop
endfacet
facet normal 0.9999403848577199 -0.010919091130577948 1.3396910386539587e-05
  outer loop
    vertex 2.0244814314562882 4.2586853659401935 49.236445947531124
    vertex 1.9690207696825643 -0.8241064764886874 46.95463908476694
    vertex 1.9746891876544714 -0.304614142538551 47.006494399751865
  endloop
endfacet
facet normal 0.9999403848577199 -0.010919091130577948 1.3396910386539587e-05
  outer loop
    vertex 2.0244814314562882 4.2586853659401935 49.236445947531124
    vertex 1.9746891876544714 -0.304614142538551 47.006494399751865
    vertex 1.9803108944690782 0.21059726360246533 46.92212027408469
  endloop
endfacet
facet normal 0.9999403848577199 -0.010919091130577948 1.3396910386539587e-05
  outer loop
    vertex 2.0244814314562882 4.2586853659401935 49.236445947531124
    vertex 1.9803108944690782 0.21059726360246533 46.92212027408469
    vertex 1.9855027800973073 0.6864169360330042 46.70726666499432
  endloop
endfacet
facet normal 0.9999403848577199 -0.010919091130577948 1.3396910386539587e-05
  outer loop
    vertex 2.0244814314562882 4.2586853659401935 49.236445947531124
    vertex 1.9855027800973073 0.6864169360330042 46.70726666499432
    vertex 1.98991102611353 1.0904185504060906 46.37657549087792
  endloop
endfacet
facet normal 0.9999403848577199 -0.010919091130577948 1.3396910386539587e-05
  outer loop
    vertex 2.0244814314562882 4.2586853659401935 49.236445947531124
    vertex 1.98991102611353 1.0904185504060906 46.37657549087792
    vertex 1.9932352178367518 1.3950700643464464 45.95258280875864
  endloop
endfacet
facet normal 0.9999403848577199 -0.010919091130577948 1.3396910386539587e-05
  outer loop
    vertex 2.0244814314562882 4.2586853659401935 49.236445947531124
    vertex 1.9932352178367518 1.3950700643464464 45.95258280875864
    vertex 1.9952488170944809 1.5796099806394517 45.464183019241894
  endloop
endfacet
facet normal 0.9999403848577199 -0.010919091130577948 1.3396910386539587e-05
  outer loop
    vertex 2.0244814314562882 4.2586853659401935 49.236445947531124
    vertex 1.9952488170944809 1.5796099806394517 45.464183019241894
    vertex 1.9958146004249948 1.6314622089563895 44.9446597608643
  endloop
endfacet
facet normal 0.9999403848577199 -0.010919091130577948 1.3396910386539587e-05
  outer loop
    vertex 2.0244814314562882 4.2586853659401935 49.236445947531124
    vertex 1.9958146004249948 1.6314622089563895 44.9446597608643
    vertex 2.002759741173351 2.267962092125979 28.683682031423047
  endloop
endfacet
facet normal 0.9999403848577199 -0.010919091130577948 1.3396910386539587e-05
  outer loop
    vertex 2.002759741173351 2.267962092125979 28.683682031423047
    vertex 1.9958146004249948 1.6314622089563895 44.9446597608643
    vertex 2.0007804531895927 2.0238429747517475 1.5136496500552408
  endloop
endfacet
facet normal 0.9999403848577199 -0.010919091130577948 1.3396910386539587e-05
  outer loop
    vertex 2.0244814314562882 4.2586853659401935 49.236445947531124
    vertex 2.002759741173351 2.267962092125979 28.683682031423047
    vertex 2.0245581500708525 4.265716381004971 33.45693541313984
  endloop
endfacet
facet normal 0.9999404753743908 -0.010910806937964273 -2.7040359929658243e-15
  outer loop
    vertex 1.9344197470924032 -3.9951792646097313 -2.2737008107583865
    vertex 1.9321759751896654 -4.200813765872157 -0.21338615122792481
    vertex 1.9318181071134495 -4.233611227716972 -1.2570804346159192
  endloop
endfacet
facet normal 0.9999404753743908 -0.010910806937964273 -2.7040359929658243e-15
  outer loop
    vertex 1.9321759751896654 -4.200813765872157 -0.21338615122792481
    vertex 1.9344197470924032 -3.9951792646097313 -2.2737008107583865
    vertex 1.9354689632030107 -3.8990219718996033 0.7862559987790488
  endloop
endfacet
facet normal 0.9999404753743908 -0.010910806937964273 -2.7040359929658243e-15
  outer loop
    vertex 1.9354689632030107 -3.8990219718996033 0.7862559987790488
    vertex 1.9344197470924032 -3.9951792646097313 -2.2737008107583865
    vertex 1.939803597661336 -3.5017666208087377 -3.193966281065827
  endloop
endfacet
facet normal 0.9999404753743908 -0.010910806937964273 -2.7040359929658243e-15
  outer loop
    vertex 1.9354689632030107 -3.8990219718996033 0.7862559987790488
    vertex 1.939803597661336 -3.5017666208087377 -3.193966281065827
    vertex 1.9414726594624012 -3.3488024578240765 1.6737220548688325
  endloop
endfacet
facet normal 0.9999038924577762 -0.01384768222893342 -0.0006689877985468817
  outer loop
    vertex 1.9476027583011943 -2.786998552586076 -3.9551622745473756
    vertex 1.9460716623135763 -2.990042310447391 -2.0407228745041297
    vertex 1.9440591761347428 -3.1744802166259674 -1.230925217245923
  endloop
endfacet
facet normal 0.9999408310354256 -0.010876164351377175 -0.0002085118322389262
  outer loop
    vertex 1.9476027583011943 -2.786998552586076 -3.9551622745473756
    vertex 1.9503023822408156 -2.60231039297416 -2.7751884613211493
    vertex 1.9460716623135763 -2.990042310447391 -2.0407228745041297
  endloop
endfacet
facet normal 0.9999408310354256 -0.010876164351377175 -0.0002085118322389262
  outer loop
    vertex 1.9503023822408156 -2.60231039297416 -2.7751884613211493
    vertex 1.9476027583011943 -2.786998552586076 -3.9551622745473756
    vertex 1.9572857291031764 -1.8995853225810437 -4.5054145421831215
  endloop
endfacet
facet normal 0.9999408310354256 -0.010876164351377175 -0.0002085118322389262
  outer loop
    vertex 1.9503023822408156 -2.60231039297416 -2.7751884613211493
    vertex 1.9572857291031764 -1.8995853225810437 -4.5054145421831215
    vertex 1.9564630193450148 -2.03770775362478 -3.3842693617171653
  endloop
endfacet
facet normal 0.9999408310354256 -0.010876164351377175 -0.0002085118322389262
  outer loop
    vertex 1.9564630193450148 -2.03770775362478 -3.3842693617171653
    vertex 1.9572857291031764 -1.8995853225810437 -4.5054145421831215
    vertex 1.9641337363884561 -1.3347111292209397 -3.8264577188839755
  endloop
endfacet
facet normal 0.9999408310354256 -0.010876164351377175 -0.0002085118322389262
  outer loop
    vertex 1.9641337363884561 -1.3347111292209397 -3.8264577188839755
    vertex 1.9572857291031764 -1.8995853225810437 -4.5054145421831215
    vertex 1.9681926316088918 -0.9000026758987745 -4.8072243012685725
  endloop
endfacet
facet normal 0.9999408310354256 -0.010876164351377175 -0.0002085118322389262
  outer loop
    vertex 1.9641337363884561 -1.3347111292209397 -3.8264577188839755
    vertex 1.9681926316088918 -0.9000026758987745 -4.8072243012685725
    vertex 1.9727917866810891 -0.5412285779589057 -4.071619127031476
  endloop
endfacet
facet normal 0.9999408310354256 -0.010876164351377175 -0.0002085118322389262
  outer loop
    vertex 1.9727917866810891 -0.5412285779589057 -4.071619127031476
    vertex 1.9681926316088918 -0.9000026758987745 -4.8072243012685725
    vertex 1.9795801784371698 0.14362948197775707 -4.840023715486247
  endloop
endfacet
facet normal 0.9999408310354256 -0.010876164351377175 -0.0002085118322389262
  outer loop
    vertex 1.9727917866810891 -0.5412285779589057 -4.071619127031476
    vertex 1.9795801784371698 0.14362948197775707 -4.840023715486247
    vertex 1.9818471384035758 0.28866537558472916 -4.103046241342788
  endloop
endfacet
facet normal 0.9999408310354256 -0.010876164351377175 -0.0002085118322389262
  outer loop
    vertex 1.9818471384035758 0.28866537558472916 -4.103046241342788
    vertex 1.9795801784371698 0.14362948197775707 -4.840023715486247
    vertex 1.9906723270904185 1.1601893441729556 -4.601577558960811
  endloop
endfacet
facet normal 0.9999408310354256 -0.010876164351377175 -0.0002085118322389262
  outer loop
    vertex 1.9818471384035758 0.28866537558472916 -4.103046241342788
    vertex 1.9906723270904185 1.1601893441729556 -4.601577558960811
    vertex 1.9906826843007073 1.0984148299405694 -3.9185973559133607
  endloop
endfacet
facet normal 0.9999408310354256 -0.010876164351377175 -0.0002085118322389262
  outer loop
    vertex 1.9906826843007073 1.0984148299405694 -3.9185973559133607
    vertex 1.9906723270904185 1.1601893441729556 -4.601577558960811
    vertex 1.998696296521018 1.8328366979685102 -3.5308423574690186
  endloop
endfacet
facet normal 0.9999408310354256 -0.010876164351377175 -0.0002085118322389262
  outer loop
    vertex 1.998696296521018 1.8328366979685102 -3.5308423574690186
    vertex 1.9906723270904185 1.1601893441729556 -4.601577558960811
    vertex 2.0007131659685715 2.080400036022814 -4.108135543208576
  endloop
endfacet
facet normal 0.9999408310354256 -0.010876164351377175 -0.0002085118322389262
  outer loop
    vertex 1.998696296521018 1.8328366979685102 -3.5308423574690186
    vertex 2.0007131659685715 2.080400036022814 -4.108135543208576
    vertex 2.0053418606348177 2.4418813430519695 -2.966206108358312
  endloop
endfacet
facet normal 0.9999408310354256 -0.010876164351377175 -0.0002085118322389262
  outer loop
    vertex 2.0053418606348177 2.4418813430519695 -2.966206108358312
    vertex 2.0007131659685715 2.080400036022814 -4.108135543208576
    vertex 2.0090184284953785 2.841550719597837 -3.393324926151551
  endloop
endfacet
facet normal 0.9999408310354256 -0.010876164351377175 -0.0002085118322389262
  outer loop
    vertex 2.0053418606348177 2.4418813430519695 -2.966206108358312
    vertex 2.0090184284953785 2.841550719597837 -3.393324926151551
    vertex 2.0101664924300655 2.884043379122373 -2.2631676358526054
  endloop
endfacet
facet normal 0.9999408310354256 -0.010876164351377175 -0.0002085118322389262
  outer loop
    vertex 2.0101664924300655 2.884043379122373 -2.2631676358526054
    vertex 2.0090184284953785 2.841550719597837 -3.393324926151551
    vertex 2.015022124754724 3.3917702336733684 -2.50585887006179
  endloop
endfacet
facet normal 0.999952533783769 -0.00973645363612883 -0.0003628360673009837
  outer loop
    vertex 2.015022124754724 3.3917702336733684 -2.50585887006179
    vertex 2.0128414012229947 3.1291901941288365 -1.4696378500271616
    vertex 2.0101664924300655 2.884043379122373 -2.2631676358526054
  endloop
endfacet
facet normal 0.9999632643545208 -0.0085711365665323 -7.456144366882648e-05
  outer loop
    vertex 2.015022124754724 3.3917702336733684 -2.50585887006179
    vertex 2.013184296399865 3.1606154377529365 -0.6396944944160072
    vertex 2.0128414012229947 3.1291901941288365 -1.4696378500271616
  endloop
endfacet
facet normal 0.9999632643545208 -0.0085711365665323 -7.456144366882648e-05
  outer loop
    vertex 2.013184296399865 3.1606154377529365 -0.6396944944160072
    vertex 2.015022124754724 3.3917702336733684 -2.50585887006179
    vertex 2.0160713408653312 3.4879275263834906 0.5540979394756513
  endloop
endfacet
facet normal 0.9999660500933827 -0.00824006427294219 1.1901505985595955e-06
  outer loop
    vertex 2.0028883296565403 2.2797468143598345 2.235559403264657
    vertex 2.002759741173351 2.267962092125979 28.683682031423047
    vertex 2.0007804531895927 2.0238429747517475 1.5136496500552408
  endloop
endfacet
facet normal 0.9999482416893168 -0.010157038670043651 0.000590345575723099
  outer loop
    vertex 2.0069410902937914 2.5884456141011274 0.9045687496592207
    vertex 2.0028883296565403 2.2797468143598345 2.235559403264657
    vertex 2.0007804531895927 2.0238429747517475 1.5136496500552408
  endloop
endfacet
facet normal 0.9999482416893168 -0.010157038670043651 0.000590345575723099
  outer loop
    vertex 2.0028883296565403 2.2797468143598345 2.235559403264657
    vertex 2.0069410902937914 2.5884456141011274 0.9045687496592207
    vertex 2.010687490296444 2.9945148825824908 1.4743634097831089
  endloop
endfacet
facet normal 0.9999482416893168 -0.010157038670043651 0.000590345575723099
  outer loop
    vertex 2.010687490296444 2.9945148825824908 1.4743634097831089
    vertex 2.0069410902937914 2.5884456141011274 0.9045687496592207
    vertex 2.0111718102210308 2.976177531574359 0.1701031628422007
  endloop
endfacet
facet normal 0.9999616736528785 -0.008741108222774139 0.0004942189517518484
  outer loop
    vertex 2.013184296399865 3.1606154377529365 -0.6396944944160072
    vertex 2.010687490296444 2.9945148825824908 1.4743634097831089
    vertex 2.0111718102210308 2.976177531574359 0.1701031628422007
  endloop
endfacet
facet normal 0.9999478716190304 -0.010203439127229106 0.00037930798569330454
  outer loop
    vertex 2.0160713408653312 3.4879275263834906 0.5540979394756513
    vertex 2.010687490296444 2.9945148825824908 1.4743634097831089
    vertex 2.013184296399865 3.1606154377529365 -0.6396944944160072
  endloop
endfacet
facet normal 0.9999404753743912 -0.010910806937918294 5.343641219573222e-15
  outer loop
    vertex 2.018315112768069 3.693562027645904 -1.5062167200548036
    vertex 2.0160713408653312 3.4879275263834906 0.5540979394756513
    vertex 2.015022124754724 3.3917702336733684 -2.50585887006179
  endloop
endfacet
facet normal 0.9999404753743912 -0.010910806937918294 5.343641219573222e-15
  outer loop
    vertex 2.0160713408653312 3.4879275263834906 0.5540979394756513
    vertex 2.018315112768069 3.693562027645904 -1.5062167200548036
    vertex 2.018672980844285 3.726359489490741 -0.46252243666680487
  endloop
endfacet
facet normal 0.9999137137831354 -0.013136384010470879 2.008848535525238e-05
  outer loop
    vertex 1.9521929079716729 -2.3663260514913422 45.07030279717681
    vertex 1.947974493903105 -2.7529301764744942 2.233316682200834
    vertex 1.9519016118997894 -2.455746121925003 1.0955863966963808
  endloop
endfacet
facet normal 0.026918494560506517 -0.46695420584303693 0.8838716899505803
  outer loop
    vertex 1.9906826843007073 1.0984148299405694 -3.9185973559133607
    vertex -3.0052159679262713 1.5642917527951048 -3.5203209282040016
    vertex -3.0133769308663343 0.8163656637143151 -3.915205792249158
  endloop
endfacet
facet normal 0.026918494560506517 -0.46695420584303693 0.8838716899505803
  outer loop
    vertex -3.0052159679262713 1.5642917527951048 -3.5203209282040016
    vertex 1.9906826843007073 1.0984148299405694 -3.9185973559133607
    vertex 1.998696296521018 1.8328366979685102 -3.5308423574690186
  endloop
endfacet
facet normal -0.018313997286006526 0.2953327412682608 0.9552189117884877
  outer loop
    vertex 1.9641337363884561 -1.3347111292209397 -3.8264577188839755
    vertex -3.03159679831488 -0.8534267743162669 -4.071041259300136
    vertex -3.0404140489665035 -1.6614995280767535 -3.8213719327567137
  endloop
endfacet
facet normal -0.018313997286006526 0.2953327412682608 0.9552189117884877
  outer loop
    vertex -3.03159679831488 -0.8534267743162669 -4.071041259300136
    vertex 1.9641337363884561 -1.3347111292209397 -3.8264577188839755
    vertex 1.9727917866810891 -0.5412285779589057 -4.071619127031476
  endloop
endfacet
facet normal 0.03801233881868851 -0.6795972652901445 0.732599903840896
  outer loop
    vertex 1.998696296521018 1.8328366979685102 -3.5308423574690186
    vertex -2.9984482081498407 2.1845352385943833 -2.9453024001138837
    vertex -3.0052159679262713 1.5642917527951048 -3.5203209282040016
  endloop
endfacet
facet normal 0.03801233881868851 -0.6795972652901445 0.732599903840896
  outer loop
    vertex -2.9984482081498407 2.1845352385943833 -2.9453024001138837
    vertex 1.998696296521018 1.8328366979685102 -3.5308423574690186
    vertex 2.0053418606348177 2.4418813430519695 -2.966206108358312
  endloop
endfacet
facet normal 0.04952335052471636 -0.9543201464456501 0.2946531789082871
  outer loop
    vertex 2.0128414012229947 3.1291901941288365 -1.4696378500271616
    vertex -2.993534863181554 2.6348275525557563 -2.229336770405102
    vertex 2.0101664924300655 2.884043379122373 -2.2631676358526054
  endloop
endfacet
facet normal 0.04952335052471636 -0.9543201464456501 0.2946531789082871
  outer loop
    vertex -2.993534863181554 2.6348275525557563 -2.229336770405102
    vertex 2.0128414012229947 3.1291901941288365 -1.4696378500271616
    vertex -2.9908107693613144 2.884482017625988 -1.4212159135531655
  endloop
endfacet
facet normal -0.03390483529807545 0.5323934909927184 0.8458177303012729
  outer loop
    vertex 1.9564630193450148 -2.03770775362478 -3.3842693617171653
    vertex -3.0404140489665035 -1.6614995280767535 -3.8213719327567137
    vertex -3.0482258117264434 -2.3774225401994737 -3.3710528137183764
  endloop
endfacet
facet normal -0.03390483529807545 0.5323934909927184 0.8458177303012729
  outer loop
    vertex -3.0404140489665035 -1.6614995280767535 -3.8213719327567137
    vertex 1.9564630193450148 -2.03770775362478 -3.3842693617171653
    vertex 1.9641337363884561 -1.3347111292209397 -3.8264577188839755
  endloop
endfacet
facet normal 0.013185620194481763 -0.2222136124381162 0.974908841824347
  outer loop
    vertex 1.9818471384035758 0.28866537558472916 -4.103046241342788
    vertex -3.0133769308663343 0.8163656637143151 -3.915205792249158
    vertex -3.0223749408322913 -0.008273101683427939 -4.103046241342774
  endloop
endfacet
facet normal 0.013185620194481763 -0.2222136124381162 0.974908841824347
  outer loop
    vertex -3.0133769308663343 0.8163656637143151 -3.915205792249158
    vertex 1.9818471384035758 0.28866537558472916 -4.103046241342788
    vertex 1.9906826843007073 1.0984148299405694 -3.9185973559133607
  endloop
endfacet
facet normal -0.0022468827520478302 0.03786609394885827 0.9992802962367241
  outer loop
    vertex 1.9727917866810891 -0.5412285779589057 -4.071619127031476
    vertex -3.0223749408322913 -0.008273101683427939 -4.103046241342774
    vertex -3.03159679831488 -0.8534267743162669 -4.071041259300136
  endloop
endfacet
facet normal -0.0022468827520478302 0.03786609394885827 0.9992802962367241
  outer loop
    vertex -3.0223749408322913 -0.008273101683427939 -4.103046241342774
    vertex 1.9727917866810891 -0.5412285779589057 -4.071619127031476
    vertex 1.9818471384035758 0.28866537558472916 -4.103046241342788
  endloop
endfacet
facet normal 0.045718260340160945 -0.8457559784938237 0.5316076236411816
  outer loop
    vertex 2.0101664924300655 2.884043379122373 -2.2631676358526054
    vertex -2.9984482081498407 2.1845352385943833 -2.9453024001138837
    vertex 2.0053418606348177 2.4418813430519695 -2.966206108358312
  endloop
endfacet
facet normal 0.045718260340160945 -0.8457559784938237 0.5316076236411816
  outer loop
    vertex -2.9984482081498407 2.1845352385943833 -2.9453024001138837
    vertex 2.0101664924300655 2.884043379122373 -2.2631676358526054
    vertex -2.993534863181554 2.6348275525557563 -2.229336770405102
  endloop
endfacet
facet normal 0.03639805101934407 -0.883836944283439 -0.46637692674671044
  outer loop
    vertex 2.0069410902937914 2.5884456141011274 0.9045687496592207
    vertex -2.992511060056386 2.728655826622844 0.24867592416386428
    vertex 2.0111718102210308 2.976177531574359 0.1701031628422007
  endloop
endfacet
facet normal 0.03639805101934407 -0.883836944283439 -0.46637692674671044
  outer loop
    vertex -2.992511060056386 2.728655826622844 0.24867592416386428
    vertex 2.0069410902937914 2.5884456141011274 0.9045687496592207
    vertex -2.9968195725706894 2.3337944679513742 0.9966465359152844
  endloop
endfacet
facet normal 0.04917732227412646 -0.9980756143487883 0.03777113999121145
  outer loop
    vertex 2.013184296399865 3.1606154377529365 -0.6396944944160072
    vertex -2.9908107693613144 2.884482017625988 -1.4212159135531655
    vertex 2.0128414012229947 3.1291901941288365 -1.4696378500271616
  endloop
endfacet
facet normal 0.04917732227412646 -0.9980756143487883 0.03777113999121145
  outer loop
    vertex -2.9908107693613144 2.884482017625988 -1.4212159135531655
    vertex 2.013184296399865 3.1606154377529365 -0.6396944944160072
    vertex -2.9904615691811944 2.916485094584053 -0.5760119304696704
  endloop
endfacet
facet normal -0.020943947121126082 -0.03760520460272212 -0.9990731703262655
  outer loop
    vertex -3.0197225021279706 0.23481440174064938 2.316915389255363
    vertex 1.9753963341310286 -0.3025301544577621 2.2324265296808603
    vertex -3.0289443596105583 -0.6103392708921879 2.348920371298001
  endloop
endfacet
facet normal -0.020943947121126082 -0.03760520460272212 -0.9990731703262655
  outer loop
    vertex 1.9753963341310286 -0.3025301544577621 2.2324265296808603
    vertex -3.0197225021279706 0.23481440174064938 2.316915389255363
    vertex 1.984451685853516 0.5273637990858719 2.200999415369547
  endloop
endfacet
facet normal -0.03635511475747184 0.22232642808422173 -0.9742942394401614
  outer loop
    vertex -3.0289443596105583 -0.6103392708921879 2.348920371298001
    vertex 1.9665607882339002 -1.1122796088136018 2.0479776442514352
    vertex -3.0379423695765153 -1.4349780362899323 2.161079922204387
  endloop
endfacet
facet normal -0.03635511475747184 0.22232642808422173 -0.9742942394401614
  outer loop
    vertex 1.9665607882339002 -1.1122796088136018 2.0479776442514352
    vertex -3.0289443596105583 -0.6103392708921879 2.348920371298001
    vertex 1.9753963341310286 -0.3025301544577621 2.2324265296808603
  endloop
endfacet
facet normal -0.004877001827361593 -0.2951477488287686 -0.9554391771402753
  outer loop
    vertex -3.0109052514763466 1.0428871555011374 2.067246062711942
    vertex 1.984451685853516 0.5273637990858719 2.200999415369547
    vertex -3.0197225021279706 0.23481440174064938 2.316915389255363
  endloop
endfacet
facet normal -0.004877001827361593 -0.2951477488287686 -0.9554391771402753
  outer loop
    vertex 1.984451685853516 0.5273637990858719 2.200999415369547
    vertex -3.0109052514763466 1.0428871555011374 2.067246062711942
    vertex 1.9931097361461507 1.3208463503479084 1.95583800722205
  endloop
endfacet
facet normal 0.024814309621759716 -0.7332763855234709 -0.6794777350816064
  outer loop
    vertex 2.0007804531895927 2.0238429747517475 1.5136496500552408
    vertex -2.9968195725706894 2.3337944679513742 0.9966465359152844
    vertex 2.0069410902937914 2.5884456141011274 0.9045687496592207
  endloop
endfacet
facet normal 0.024814309621759716 -0.7332763855234709 -0.6794777350816064
  outer loop
    vertex -2.9968195725706894 2.3337944679513742 0.9966465359152844
    vertex 2.0007804531895927 2.0238429747517475 1.5136496500552408
    vertex -3.0030934887164062 1.7588101676238608 1.616926943673608
  endloop
endfacet
facet normal -0.06110297919771458 0.6789537192833777 -0.7316339747472312
  outer loop
    vertex -3.046103332516579 -2.1829041253707167 1.7661950581592278
    vertex 1.9519016118997894 -2.455746121925003 1.0955863966963808
    vertex -3.052871092293009 -2.8031476111699973 1.191176530069111
  endloop
endfacet
facet normal -0.06110297919771458 0.6789537192833777 -0.7316339747472312
  outer loop
    vertex 1.9519016118997894 -2.455746121925003 1.0955863966963808
    vertex -3.046103332516579 -2.1829041253707167 1.7661950581592278
    vertex 1.9585471760135893 -1.8467014768415422 1.6602226458070923
  endloop
endfacet
facet normal -0.07255686752897736 0.9529961036828498 -0.2941664959503198
  outer loop
    vertex -3.060508531081535 -3.5030943902015976 -0.3329099564916064
    vertex 1.9470769801045418 -2.8979081579954045 0.3925479241906757
    vertex 1.9444020713116121 -3.1430549730018678 -0.40098186163476807
  endloop
endfacet
facet normal -0.07255686752897736 0.9529961036828498 -0.2941664959503198
  outer loop
    vertex 1.9470769801045418 -2.8979081579954045 0.3925479241906757
    vertex -3.060508531081535 -3.5030943902015976 -0.3329099564916064
    vertex -3.057784437261295 -3.2534399251313677 0.47521090036033087
  endloop
endfacet
facet normal -0.06775845201957292 0.9728260844504949 0.22140054560147307
  outer loop
    vertex -3.0588082403864636 -3.347268199198457 -2.0028017942086334
    vertex 1.9440591761347428 -3.1744802166259674 -1.230925217245923
    vertex 1.9460716623135763 -2.990042310447391 -2.0407228745041297
  endloop
endfacet
facet normal -0.06775845201957292 0.9728260844504949 0.22140054560147307
  outer loop
    vertex 1.9440591761347428 -3.1744802166259674 -1.230925217245923
    vertex -3.0588082403864636 -3.347268199198457 -2.0028017942086334
    vertex -3.060857731261655 -3.5350974671596616 -1.178113939575101
  endloop
endfacet
facet normal 0.010734877796286077 -0.5324878027276231 -0.8463696015010266
  outer loop
    vertex -3.0030934887164062 1.7588101676238608 1.616926943673608
    vertex 1.9931097361461507 1.3208463503479084 1.95583800722205
    vertex -3.0109052514763466 1.0428871555011374 2.067246062711942
  endloop
endfacet
facet normal 0.010734877796286077 -0.5324878027276231 -0.8463696015010266
  outer loop
    vertex 1.9931097361461507 1.3208463503479084 1.95583800722205
    vertex -3.0030934887164062 1.7588101676238608 1.616926943673608
    vertex 2.0007804531895927 2.0238429747517475 1.5136496500552408
  endloop
endfacet
facet normal 0.04470365297187645 -0.9740797990602238 -0.2217433842840955
  outer loop
    vertex 2.0111718102210308 2.976177531574359 0.1701031628422007
    vertex -2.9904615691811944 2.916485094584053 -0.5760119304696704
    vertex 2.013184296399865 3.1606154377529365 -0.6396944944160072
  endloop
endfacet
facet normal 0.04470365297187645 -0.9740797990602238 -0.2217433842840955
  outer loop
    vertex -2.9904615691811944 2.916485094584053 -0.5760119304696704
    vertex 2.0111718102210308 2.976177531574359 0.1701031628422007
    vertex -2.992511060056386 2.728655826622844 0.24867592416386428
  endloop
endfacet
facet normal -0.04794773578039788 0.7327753357091399 0.6787792881415067
  outer loop
    vertex -3.0482258117264434 -2.3774225401994737 -3.3710528137183764
    vertex 1.9503023822408156 -2.60231039297416 -2.7751884613211493
    vertex 1.9564630193450148 -2.03770775362478 -3.3842693617171653
  endloop
endfacet
facet normal -0.04794773578039788 0.7327753357091399 0.6787792881415067
  outer loop
    vertex 1.9503023822408156 -2.60231039297416 -2.7751884613211493
    vertex -3.0482258117264434 -2.3774225401994737 -3.3710528137183764
    vertex -3.05449972787216 -2.9524068405269883 -2.750772405960054
  endloop
endfacet
facet normal -0.07221101004120786 0.9966762907626462 -0.03770863906907729
  outer loop
    vertex -3.060857731261655 -3.5350974671596616 -1.178113939575101
    vertex 1.9444020713116121 -3.1430549730018678 -0.40098186163476807
    vertex 1.9440591761347428 -3.1744802166259674 -1.230925217245923
  endloop
endfacet
facet normal -0.07221101004120786 0.9966762907626462 -0.03770863906907729
  outer loop
    vertex 1.9444020713116121 -3.1430549730018678 -0.40098186163476807
    vertex -3.060857731261655 -3.5350974671596616 -1.178113939575101
    vertex -3.060508531081535 -3.5030943902015976 -0.3329099564916064
  endloop
endfacet
facet normal -0.06877259340386563 0.8447081591045539 -0.5307904071652976
  outer loop
    vertex -3.057784437261295 -3.2534399251313677 0.47521090036033087
    vertex 1.9519016118997894 -2.455746121925003 1.0955863966963808
    vertex 1.9470769801045418 -2.8979081579954045 0.3925479241906757
  endloop
endfacet
facet normal -0.06877259340386563 0.8447081591045539 -0.5307904071652976
  outer loop
    vertex 1.9519016118997894 -2.455746121925003 1.0955863966963808
    vertex -3.057784437261295 -3.2534399251313677 0.47521090036033087
    vertex -3.052871092293009 -2.8031476111699973 1.191176530069111
  endloop
endfacet
facet normal -0.0500512870025612 0.4667355619486575 -0.8829794923336884
  outer loop
    vertex -3.0379423695765153 -1.4349780362899323 2.161079922204387
    vertex 1.9585471760135893 -1.8467014768415422 1.6602226458070923
    vertex -3.046103332516579 -2.1829041253707167 1.7661950581592278
  endloop
endfacet
facet normal -0.0500512870025612 0.4667355619486575 -0.8829794923336884
  outer loop
    vertex 1.9585471760135893 -1.8467014768415422 1.6602226458070923
    vertex -3.0379423695765153 -1.4349780362899323 2.161079922204387
    vertex 1.9665607882339002 -1.1122796088136018 2.0479776442514352
  endloop
endfacet
facet normal -0.059489326637520275 0.8829116084339765 0.4657554204824061
  outer loop
    vertex -3.05449972787216 -2.9524068405269883 -2.750772405960054
    vertex 1.9460716623135763 -2.990042310447391 -2.0407228745041297
    vertex 1.9503023822408156 -2.60231039297416 -2.7751884613211493
  endloop
endfacet
facet normal -0.059489326637520275 0.8829116084339765 0.4657554204824061
  outer loop
    vertex 1.9460716623135763 -2.990042310447391 -2.0407228745041297
    vertex -3.05449972787216 -2.9524068405269883 -2.750772405960054
    vertex -3.0588082403864636 -3.347268199198457 -2.0028017942086334
  endloop
endfacet
facet normal 0.9999369420082329 -0.01122605704614603 -0.00029605813760198957
  outer loop
    vertex 1.9476027583011943 -2.786998552586076 -3.9551622745473756
    vertex 1.9440591761347428 -3.1744802166259674 -1.230925217245923
    vertex 1.939803597661336 -3.5017666208087377 -3.193966281065827
  endloop
endfacet
facet normal 0.9999093957763234 -0.013460822433654245 8.060792404715749e-05
  outer loop
    vertex 1.9440591761347428 -3.1744802166259674 -1.230925217245923
    vertex 1.9414726594624012 -3.3488024578240765 1.6737220548688325
    vertex 1.939803597661336 -3.5017666208087377 -3.193966281065827
  endloop
endfacet
facet normal 0.9999093957763234 -0.013460822433654245 8.060792404715749e-05
  outer loop
    vertex 1.9414726594624012 -3.3488024578240765 1.6737220548688325
    vertex 1.9440591761347428 -3.1744802166259674 -1.230925217245923
    vertex 1.9444020713116121 -3.1430549730018678 -0.40098186163476807
  endloop
endfacet
endsolid piston
