solid piston
facet normal 0.009449035984027918 0.865973853946511 -0.49999999999999967
  outer loop
    vertex -2.9873003787074004 3.206198066602123 0.5870590528453583
    vertex 2.018098582499155 3.673717722701812 1.4913710394198625
    vertex 2.0124019981645267 3.151644031912506 0.5870590528453428
  endloop
endfacet
facet normal 0.009449035984027918 0.865973853946511 -0.49999999999999967
  outer loop
    vertex 2.018098582499155 3.673717722701812 1.4913710394198625
    vertex -2.9873003787074004 3.206198066602123 0.5870590528453583
    vertex -2.9816037943727856 3.7282717573914392 1.4913710394198756
  endloop
endfacet
facet normal 0.010539030206993606 0.9658683299158929 -0.2588190451025197
  outer loop
    vertex -2.9816037943727856 3.7282717573914392 1.4913710394198756
    vertex 2.0210473515348166 3.9439629509482867 2.5000000000000164
    vertex 2.018098582499155 3.673717722701812 1.4913710394198625
  endloop
endfacet
facet normal 0.010539030206993606 0.9658683299158929 -0.2588190451025197
  outer loop
    vertex 2.0210473515348166 3.9439629509482867 2.5000000000000164
    vertex -2.9816037943727856 3.7282717573914392 1.4913710394198756
    vertex -2.978655025337133 3.9985169856379192 2.500000000000027
  endloop
endfacet
facet normal 0.01091080693792346 0.9999404753743912 3.304661047422453e-17
  outer loop
    vertex -2.978655025337133 3.9985169856379192 2.500000000000027
    vertex 2.0210473515348255 3.9439629509482987 3.5442095377604255
    vertex 2.0210473515348166 3.9439629509482867 2.5000000000000164
  endloop
endfacet
facet normal 0.01091080693792346 0.9999404753743912 3.304661047422453e-17
  outer loop
    vertex 2.0210473515348255 3.9439629509482987 3.5442095377604255
    vertex -2.978655025337133 3.9985169856379192 2.500000000000027
    vertex -2.9786550253371225 3.998516985637911 3.544209537760436
  endloop
endfacet
facet normal 0.01053903020699494 0.9658683299158928 0.2588190451025205
  outer loop
    vertex -2.9786550253371225 3.998516985637911 3.544209537760436
    vertex 2.018098582499156 3.6737177227018165 4.552838498340571
    vertex 2.0210473515348255 3.9439629509482987 3.5442095377604255
  endloop
endfacet
facet normal 0.01053903020699494 0.9658683299158928 0.2588190451025205
  outer loop
    vertex 2.018098582499156 3.6737177227018165 4.552838498340571
    vertex -2.9786550253371225 3.998516985637911 3.544209537760436
    vertex -2.9816037943727913 3.7282717573914326 4.552838498340592
  endloop
endfacet
facet normal 0.009449035984030347 0.8659738539465112 0.49999999999999895
  outer loop
    vertex -2.9816037943727913 3.7282717573914326 4.552838498340592
    vertex 2.0124019981645507 3.1516440319125025 5.457150484915108
    vertex 2.018098582499156 3.6737177227018165 4.552838498340571
  endloop
endfacet
facet normal 0.009449035984030347 0.8659738539465112 0.49999999999999895
  outer loop
    vertex 2.0124019981645507 3.1516440319125025 5.457150484915108
    vertex -2.9816037943727913 3.7282717573914326 4.552838498340592
    vertex -2.9873003787074017 3.2061980666021266 5.457150484915107
  endloop
endfacet
facet normal 0.0077151055740240235 0.7070646909201374 0.7071067811865421
  outer loop
    vertex 2.00434581133934 2.413320337840089 6.195518130045169
    vertex -2.9873003787074017 3.2061980666021266 5.457150484915107
    vertex -2.995356565532637 2.4678743725297037 6.195518130045181
  endloop
endfacet
facet normal 0.0077151055740240235 0.7070646909201374 0.7071067811865421
  outer loop
    vertex -2.9873003787074017 3.2061980666021266 5.457150484915107
    vertex 2.00434581133934 2.413320337840089 6.195518130045169
    vertex 2.0124019981645507 3.1516440319125025 5.457150484915108
  endloop
endfacet
facet normal -0.007715105574022058 -0.7070646909201415 0.707106781186538
  outer loop
    vertex 1.9431529971287547 -3.194804897932923 5.4571504849151
    vertex -3.0502425360050145 -2.562248854633116 6.035186900926562
    vertex -3.056549379743194 -3.140250863243306 5.457150484915099
  endloop
endfacet
facet normal -0.007715105574022058 -0.7070646909201415 0.707106781186538
  outer loop
    vertex -3.0502425360050145 -2.562248854633116 6.035186900926562
    vertex 1.9431529971287547 -3.194804897932923 5.4571504849151
    vertex 1.949459840866954 -2.616802889322733 6.035186900926549
  endloop
endfacet
facet normal -0.009449035984027663 -0.8659738539465113 0.499999999999999
  outer loop
    vertex 1.9431529971287547 -3.194804897932923 5.4571504849151
    vertex -3.062245964077824 -3.6623245540326166 4.552838498340592
    vertex 1.937456412794116 -3.716878588722219 4.552838498340568
  endloop
endfacet
facet normal -0.009449035984027663 -0.8659738539465113 0.499999999999999
  outer loop
    vertex -3.062245964077824 -3.6623245540326166 4.552838498340592
    vertex 1.9431529971287547 -3.194804897932923 5.4571504849151
    vertex -3.056549379743194 -3.140250863243306 5.457150484915099
  endloop
endfacet
facet normal -0.010539030206993462 -0.9658683299158927 0.2588190451025204
  outer loop
    vertex 1.937456412794116 -3.716878588722219 4.552838498340568
    vertex -3.065194733113488 -3.9325697822790926 3.544209537760433
    vertex 1.9345076437584527 -3.9871238169687024 3.544209537760424
  endloop
endfacet
facet normal -0.010539030206993462 -0.9658683299158927 0.2588190451025204
  outer loop
    vertex -3.065194733113488 -3.9325697822790926 3.544209537760433
    vertex 1.937456412794116 -3.716878588722219 4.552838498340568
    vertex -3.062245964077824 -3.6623245540326166 4.552838498340592
  endloop
endfacet
facet normal -0.010910806937923413 -0.9999404753743911 6.978074856872125e-16
  outer loop
    vertex 1.9345076437584527 -3.9871238169687024 3.544209537760424
    vertex -3.0651947331135 -3.932569782279087 2.500000000000023
    vertex 1.9345076437584514 -3.987123816968706 2.500000000000013
  endloop
endfacet
facet normal -0.010910806937923413 -0.9999404753743911 6.978074856872125e-16
  outer loop
    vertex -3.0651947331135 -3.932569782279087 2.500000000000023
    vertex 1.9345076437584527 -3.9871238169687024 3.544209537760424
    vertex -3.065194733113488 -3.9325697822790926 3.544209537760433
  endloop
endfacet
facet normal -0.010539030206995066 -0.9658683299158927 -0.2588190451025209
  outer loop
    vertex 1.9345076437584514 -3.987123816968706 2.500000000000013
    vertex -3.0622459640778144 -3.662324554032614 1.4913710394198794
    vertex 1.9374564127941138 -3.7168785887222358 1.4913710394198634
  endloop
endfacet
facet normal -0.010539030206995066 -0.9658683299158927 -0.2588190451025209
  outer loop
    vertex -3.0622459640778144 -3.662324554032614 1.4913710394198794
    vertex 1.9345076437584514 -3.987123816968706 2.500000000000013
    vertex -3.0651947331135 -3.932569782279087 2.500000000000023
  endloop
endfacet
facet normal -0.009449035984030196 -0.8659738539465113 -0.4999999999999991
  outer loop
    vertex 1.9374564127941138 -3.7168785887222358 1.4913710394198634
    vertex -3.0565493797431955 -3.1402508632433035 0.5870590528453623
    vertex 1.9431529971287285 -3.194804897932921 0.5870590528453391
  endloop
endfacet
facet normal -0.009449035984030196 -0.8659738539465113 -0.4999999999999991
  outer loop
    vertex -3.0565493797431955 -3.1402508632433035 0.5870590528453623
    vertex 1.9374564127941138 -3.7168785887222358 1.4913710394198634
    vertex -3.0622459640778144 -3.662324554032614 1.4913710394198794
  endloop
endfacet
facet normal -0.007715105574025089 -0.7070646909201339 -0.7071067811865456
  outer loop
    vertex -3.048493192917959 -2.4019271691708863 -0.15130859228467172
    vertex 1.9431529971287285 -3.194804897932921 0.5870590528453391
    vertex -3.0565493797431955 -3.1402508632433035 0.5870590528453623
  endloop
endfacet
facet normal -0.007715105574025089 -0.7070646909201339 -0.7071067811865456
  outer loop
    vertex 1.9431529971287285 -3.194804897932921 0.5870590528453391
    vertex -3.048493192917959 -2.4019271691708863 -0.15130859228467172
    vertex 1.9512091839539538 -2.456481203860504 -0.1513085922847157
  endloop
endfacet
facet normal -0.0054554034689642105 -0.4999702376871962 -0.8660254037844384
  outer loop
    vertex -3.038626419420806 -1.4976690114287963 -0.6734133611648918
    vertex 1.9512091839539538 -2.456481203860504 -0.1513085922847157
    vertex -3.048493192917959 -2.4019271691708863 -0.15130859228467172
  endloop
endfacet
facet normal -0.0054554034689642105 -0.4999702376871962 -0.8660254037844384
  outer loop
    vertex 1.9512091839539538 -2.456481203860504 -0.1513085922847157
    vertex -3.038626419420806 -1.4976690114287963 -0.6734133611648918
    vertex 1.9610759574511174 -1.5522230461184128 -0.6734133611649143
  endloop
endfacet
facet normal -0.002823924632974879 -0.25880363899576075 -0.9659258262890682
  outer loop
    vertex -3.0276214635599317 -0.48910008910990016 -0.9436746766149858
    vertex 1.9610759574511174 -1.5522230461184128 -0.6734133611649143
    vertex -3.038626419420806 -1.4976690114287963 -0.6734133611648918
  endloop
endfacet
facet normal -0.002823924632974879 -0.25880363899576075 -0.9659258262890682
  outer loop
    vertex 1.9610759574511174 -1.5522230461184128 -0.6734133611649143
    vertex -3.0276214635599317 -0.48910008910990016 -0.9436746766149858
    vertex 1.972080913312003 -0.5436541237995164 -0.9436746766150101
  endloop
endfacet
facet normal -3.8580117934504415e-15 -6.675058365628485e-16 -1.0
  outer loop
    vertex -3.0162282948906847 0.5550472924687212 -0.9436746766149825
    vertex 1.972080913312003 -0.5436541237995164 -0.9436746766150101
    vertex -3.0276214635599317 -0.48910008910990016 -0.9436746766149858
  endloop
endfacet
facet normal -3.8580117934504415e-15 -6.675058365628485e-16 -1.0
  outer loop
    vertex 1.972080913312003 -0.5436541237995164 -0.9436746766150101
    vertex -3.0162282948906847 0.5550472924687212 -0.9436746766149825
    vertex 1.9834740819812458 0.5004932577791017 -0.9436746766150104
  endloop
endfacet
facet normal 0.0028239246329680723 0.2588036389957611 -0.9659258262890681
  outer loop
    vertex -3.00522333902979 1.563616214787615 -0.6734133611648931
    vertex 1.9834740819812458 0.5004932577791017 -0.9436746766150104
    vertex -3.0162282948906847 0.5550472924687212 -0.9436746766149825
  endloop
endfacet
facet normal 0.0028239246329680723 0.2588036389957611 -0.9659258262890681
  outer loop
    vertex 1.9834740819812458 0.5004932577791017 -0.9436746766150104
    vertex -3.00522333902979 1.563616214787615 -0.6734133611648931
    vertex 1.9944790378421362 1.5090621800980006 -0.6734133611649158
  endloop
endfacet
facet normal 0.0054554034689589335 0.4999702376871959 -0.8660254037844385
  outer loop
    vertex -2.9953565655326218 2.4678743725297023 -0.15130859228468194
    vertex 1.9944790378421362 1.5090621800980006 -0.6734133611649158
    vertex -3.00522333902979 1.563616214787615 -0.6734133611648931
  endloop
endfacet
facet normal 0.0054554034689589335 0.4999702376871959 -0.8660254037844385
  outer loop
    vertex 1.9944790378421362 1.5090621800980006 -0.6734133611649158
    vertex -2.9953565655326218 2.4678743725297023 -0.15130859228468194
    vertex 2.0043458113393022 2.41332033784009 -0.15130859228471816
  endloop
endfacet
facet normal 0.007715105574020216 0.7070646909201336 -0.7071067811865459
  outer loop
    vertex -2.9873003787074004 3.206198066602123 0.5870590528453583
    vertex 2.0043458113393022 2.41332033784009 -0.15130859228471816
    vertex -2.9953565655326218 2.4678743725297023 -0.15130859228468194
  endloop
endfacet
facet normal 0.007715105574020216 0.7070646909201336 -0.7071067811865459
  outer loop
    vertex 2.0043458113393022 2.41332033784009 -0.15130859228471816
    vertex -2.9873003787074004 3.206198066602123 0.5870590528453583
    vertex 2.0124019981645267 3.151644031912506 0.5870590528453428
  endloop
endfacet
facet normal -0.010237254881132935 -0.9382115888046694 0.3459107012584562
  outer loop
    vertex 1.999062099880566 1.9290851224380476 2.5811389465135752
    vertex -3.0026107864733516 1.803048280638149 2.091265042219245
    vertex 1.9970915903985977 1.748494245948534 2.0912650422192343
  endloop
endfacet
facet normal -0.010237254881132935 -0.9382115888046694 0.3459107012584562
  outer loop
    vertex -3.0026107864733516 1.803048280638149 2.091265042219245
    vertex 1.999062099880566 1.9290851224380476 2.5811389465135752
    vertex -3.0006402769913696 1.9836391571276657 2.581138946513586
  endloop
endfacet
facet normal -0.008911603129896483 -0.8167198558968674 0.5769655625021786
  outer loop
    vertex 1.9970915903985977 1.748494245948534 2.0912650422192343
    vertex -3.0058975194583146 1.501829739964302 1.664826327011469
    vertex 1.9938048574136362 1.4472757052746876 1.6648263270114605
  endloop
endfacet
facet normal -0.008911603129896483 -0.8167198558968674 0.5769655625021786
  outer loop
    vertex -3.0058975194583146 1.501829739964302 1.664826327011469
    vertex 1.9970915903985977 1.748494245948534 2.0912650422192343
    vertex -3.0026107864733516 1.803048280638149 2.091265042219245
  endloop
endfacet
facet normal -0.006978640352480023 -0.6395700145030703 0.7687011741420547
  outer loop
    vertex 1.9894258863470093 1.0459570461762635 1.3308838946083619
    vertex -3.0058975194583146 1.501829739964302 1.664826327011469
    vertex -3.010276490524918 1.1005110808658838 1.3308838946083796
  endloop
endfacet
facet normal -0.006978640352480023 -0.6395700145030703 0.7687011741420547
  outer loop
    vertex -3.0058975194583146 1.501829739964302 1.664826327011469
    vertex 1.9894258863470093 1.0459570461762635 1.3308838946083619
    vertex 1.9938048574136362 1.4472757052746876 1.6648263270114605
  endloop
endfacet
facet normal -0.004570094767789724 -0.4188345335603116 0.9080510711029032
  outer loop
    vertex 1.9842530968403271 0.5718874720603867 1.1121953699122473
    vertex -3.010276490524918 1.1005110808658838 1.3308838946083796
    vertex -3.0154492800316013 0.6264415067500025 1.1121953699122638
  endloop
endfacet
facet normal -0.004570094767789724 -0.4188345335603116 0.9080510711029032
  outer loop
    vertex -3.010276490524918 1.1005110808658838 1.3308838946083796
    vertex 1.9842530968403271 0.5718874720603867 1.1121953699122473
    vertex 1.9894258863470093 1.0459570461762635 1.3308838946083619
  endloop
endfacet
facet normal -0.0018501047771111755 -0.16955617131221032 0.9855187881934359
  outer loop
    vertex 1.978639005950028 0.05737404096603101 1.0236640144812867
    vertex -3.0154492800316013 0.6264415067500025 1.1121953699122638
    vertex -3.021063370921911 0.11192807565564827 1.0236640144813047
  endloop
endfacet
facet normal -0.0018501047771111755 -0.16955617131221032 0.9855187881934359
  outer loop
    vertex -3.0154492800316013 0.6264415067500025 1.1121953699122638
    vertex 1.978639005950028 0.05737404096603101 1.0236640144812867
    vertex 1.9842530968403271 0.5718874720603867 1.1121953699122473
  endloop
endfacet
facet normal 0.0009959667966820537 0.0912771638059959 0.995825028515388
  outer loop
    vertex 1.9729662046925687 -0.4625200070513667 1.0713230938831153
    vertex -3.021063370921911 0.11192807565564827 1.0236640144813047
    vertex -3.0267361721793575 -0.4079659723617499 1.0713230938831306
  endloop
endfacet
facet normal 0.0009959667966820537 0.0912771638059959 0.995825028515388
  outer loop
    vertex -3.021063370921911 0.11192807565564827 1.0236640144813047
    vertex 1.9729662046925687 -0.4625200070513667 1.0713230938831153
    vertex 1.978639005950028 0.05737404096603101 1.0236640144812867
  endloop
endfacet
facet normal 0.0037741648791967666 0.34589011105346945 0.9382674388226862
  outer loop
    vertex 1.9676212850988861 -0.952364751784961 1.2519247206168518
    vertex -3.0267361721793575 -0.4079659723617499 1.0713230938831306
    vertex -3.032081091773045 -0.8978107170953441 1.2519247206168698
  endloop
endfacet
facet normal 0.0037741648791967666 0.34589011105346945 0.9382674388226862
  outer loop
    vertex -3.0267361721793575 -0.4079659723617499 1.0713230938831306
    vertex 1.9676212850988861 -0.952364751784961 1.2519247206168518
    vertex 1.9729662046925687 -0.4625200070513667 1.0713230938831153
  endloop
endfacet
facet normal 0.006295159862293933 0.5769312188430841 0.8167684737344738
  outer loop
    vertex 1.9629684946063959 -1.3787780833878682 1.55316119227889
    vertex -3.032081091773045 -0.8978107170953441 1.2519247206168698
    vertex -3.0367338822655423 -1.3242240486982548 1.5531611922789104
  endloop
endfacet
facet normal 0.006295159862293933 0.5769312188430841 0.8167684737344738
  outer loop
    vertex -3.032081091773045 -0.8978107170953441 1.2519247206168698
    vertex 1.9629684946063959 -1.3787780833878682 1.55316119227889
    vertex 1.9676212850988861 -0.952364751784961 1.2519247206168518
  endloop
endfacet
facet normal 0.008387150104021374 0.7686554174924608 0.639608086934979
  outer loop
    vertex -3.0367338822655423 -1.3242240486982548 1.5531611922789104
    vertex 1.9593249131980663 -1.7127006379927072 1.954503741142271
    vertex 1.9629684946063959 -1.3787780833878682 1.55316119227889
  endloop
endfacet
facet normal 0.008387150104021374 0.7686554174924608 0.639608086934979
  outer loop
    vertex 1.9593249131980663 -1.7127006379927072 1.954503741142271
    vertex -3.0367338822655423 -1.3242240486982548 1.5531611922789104
    vertex -3.0403774636738747 -1.6581466033030878 1.9545037411422863
  endloop
endfacet
facet normal 0.009907569926580205 0.9079970197028625 0.4188594660132079
  outer loop
    vertex -3.0403774636738747 -1.6581466033030878 1.9545037411422863
    vertex 1.9569388449255658 -1.9313761453362608 2.4286015357518758
    vertex 1.9593249131980663 -1.7127006379927072 1.954503741142271
  endloop
endfacet
facet normal 0.009907569926580205 0.9079970197028625 0.4188594660132079
  outer loop
    vertex 1.9569388449255658 -1.9313761453362608 2.4286015357518758
    vertex -3.0403774636738747 -1.6581466033030878 1.9545037411422863
    vertex -3.0427635319463717 -1.8768221106466505 2.428601535751884
  endloop
endfacet
facet normal 0.010752805231675409 0.9854601255565383 0.1695662646806297
  outer loop
    vertex -3.0427635319463717 -1.8768221106466505 2.428601535751884
    vertex 1.9559728963985092 -2.019902230971429 2.943145594888707
    vertex 1.9569388449255658 -1.9313761453362608 2.4286015357518758
  endloop
endfacet
facet normal 0.010752805231675409 0.9854601255565383 0.1695662646806297
  outer loop
    vertex 1.9559728963985092 -2.019902230971429 2.943145594888707
    vertex -3.0427635319463717 -1.8768221106466505 2.428601535751884
    vertex -3.043729480473434 -1.9653481962818147 2.943145594888723
  endloop
endfacet
facet normal 0.010865254630083185 0.9957657524033937 -0.09128259736842925
  outer loop
    vertex -3.043729480473434 -1.9653481962818147 2.943145594888723
    vertex 1.9564928954127048 -1.9722459884584616 3.4630705912468596
    vertex 1.9559728963985092 -2.019902230971429 2.943145594888707
  endloop
endfacet
facet normal 0.010865254630083185 0.9957657524033937 -0.09128259736842925
  outer loop
    vertex 1.9564928954127048 -1.9722459884584616 3.4630705912468596
    vertex -3.043729480473434 -1.9653481962818147 2.943145594888723
    vertex -3.04320948145923 -1.9176919537688446 3.4630705912468667
  endloop
endfacet
facet normal 0.010237254881132848 0.9382115888046697 -0.34591070125845524
  outer loop
    vertex -3.04320948145923 -1.9176919537688446 3.4630705912468667
    vertex 1.9584634048946736 -1.7916551119689448 3.9529444955411934
    vertex 1.9564928954127048 -1.9722459884584616 3.4630705912468596
  endloop
endfacet
facet normal 0.010237254881132848 0.9382115888046697 -0.34591070125845524
  outer loop
    vertex 1.9584634048946736 -1.7916551119689448 3.9529444955411934
    vertex -3.04320948145923 -1.9176919537688446 3.4630705912468667
    vertex -3.0412389719772692 -1.7371010772793245 3.952944495541213
  endloop
endfacet
facet normal 0.00891160312989658 0.8167198558968668 -0.5769655625021796
  outer loop
    vertex -3.0412389719772692 -1.7371010772793245 3.952944495541213
    vertex 1.9617501378796374 -1.490436571295097 4.379383210748973
    vertex 1.9584634048946736 -1.7916551119689448 3.9529444955411934
  endloop
endfacet
facet normal 0.00891160312989658 0.8167198558968668 -0.5769655625021796
  outer loop
    vertex 1.9617501378796374 -1.490436571295097 4.379383210748973
    vertex -3.0412389719772692 -1.7371010772793245 3.952944495541213
    vertex -3.037952238992308 -1.4358825366054806 4.379383210748999
  endloop
endfacet
facet normal 0.006978640352479785 0.6395700145030697 -0.7687011741420551
  outer loop
    vertex -3.033573267925679 -1.0345638775070616 4.7133256431520785
    vertex 1.9617501378796374 -1.490436571295097 4.379383210748973
    vertex -3.037952238992308 -1.4358825366054806 4.379383210748999
  endloop
endfacet
facet normal 0.006978640352479785 0.6395700145030697 -0.7687011741420551
  outer loop
    vertex 1.9617501378796374 -1.490436571295097 4.379383210748973
    vertex -3.033573267925679 -1.0345638775070616 4.7133256431520785
    vertex 1.966129108946262 -1.0891179121966768 4.713325643152068
  endloop
endfacet
facet normal 0.004570094767789767 0.41883453356031175 -0.9080510711029033
  outer loop
    vertex -3.028400478418994 -0.5604943033911826 4.9320141678481955
    vertex 1.966129108946262 -1.0891179121966768 4.713325643152068
    vertex -3.033573267925679 -1.0345638775070616 4.7133256431520785
  endloop
endfacet
facet normal 0.004570094767789767 0.41883453356031175 -0.9080510711029033
  outer loop
    vertex 1.966129108946262 -1.0891179121966768 4.713325643152068
    vertex -3.028400478418994 -0.5604943033911826 4.9320141678481955
    vertex 1.9713018984529427 -0.615048338080801 4.932014167848183
  endloop
endfacet
facet normal 0.0018501047771111547 0.16955617131220976 -0.985518788193436
  outer loop
    vertex -3.02278638752869 -0.04598087229682783 5.020545523279153
    vertex 1.9713018984529427 -0.615048338080801 4.932014167848183
    vertex -3.028400478418994 -0.5604943033911826 4.9320141678481955
  endloop
endfacet
facet normal 0.0018501047771111547 0.16955617131220976 -0.985518788193436
  outer loop
    vertex 1.9713018984529427 -0.615048338080801 4.932014167848183
    vertex -3.02278638752869 -0.04598087229682783 5.020545523279153
    vertex 1.9769159893432455 -0.1005349069864444 5.020545523279145
  endloop
endfacet
facet normal -0.0009959667966820537 -0.09127716380599589 -0.995825028515388
  outer loop
    vertex -3.0171135862712273 0.47391317572057134 4.972886443877321
    vertex 1.9769159893432455 -0.1005349069864444 5.020545523279145
    vertex -3.02278638752869 -0.04598087229682783 5.020545523279153
  endloop
endfacet
facet normal -0.0009959667966820537 -0.09127716380599589 -0.995825028515388
  outer loop
    vertex 1.9769159893432455 -0.1005349069864444 5.020545523279145
    vertex -3.0171135862712273 0.47391317572057134 4.972886443877321
    vertex 1.9825887906007054 0.419359141030955 4.972886443877309
  endloop
endfacet
facet normal -0.0037741648791966287 -0.34589011105347006 -0.9382674388226862
  outer loop
    vertex -3.0117686666775523 0.9637579204541626 4.7922848171435914
    vertex 1.9825887906007054 0.419359141030955 4.972886443877309
    vertex -3.0171135862712273 0.47391317572057134 4.972886443877321
  endloop
endfacet
facet normal -0.0037741648791966287 -0.34589011105347006 -0.9382674388226862
  outer loop
    vertex 1.9825887906007054 0.419359141030955 4.972886443877309
    vertex -3.0117686666775523 0.9637579204541626 4.7922848171435914
    vertex 1.987933710194391 0.9092038857645446 4.792284817143576
  endloop
endfacet
facet normal -0.006295159862294107 -0.5769312188430851 -0.816768473734473
  outer loop
    vertex -3.0071158761850705 1.3901712520570713 4.491048345481558
    vertex 1.987933710194391 0.9092038857645446 4.792284817143576
    vertex -3.0117686666775523 0.9637579204541626 4.7922848171435914
  endloop
endfacet
facet normal -0.006295159862294107 -0.5769312188430851 -0.816768473734473
  outer loop
    vertex 1.987933710194391 0.9092038857645446 4.792284817143576
    vertex -3.0071158761850705 1.3901712520570713 4.491048345481558
    vertex 1.9925865006868761 1.3356172173674568 4.491048345481544
  endloop
endfacet
facet normal -0.008387150104021584 -0.7686554174924611 -0.6396080869349786
  outer loop
    vertex 1.9925865006868761 1.3356172173674568 4.491048345481544
    vertex -3.003472294776733 1.7240938066619074 4.089705796618175
    vertex 1.9962300820952044 1.6695397719722846 4.08970579661816
  endloop
endfacet
facet normal -0.008387150104021584 -0.7686554174924611 -0.6396080869349786
  outer loop
    vertex -3.003472294776733 1.7240938066619074 4.089705796618175
    vertex 1.9925865006868761 1.3356172173674568 4.491048345481544
    vertex -3.0071158761850705 1.3901712520570713 4.491048345481558
  endloop
endfacet
facet normal -0.009907569926580205 -0.9079970197028625 -0.4188594660132079
  outer loop
    vertex 1.9962300820952044 1.6695397719722846 4.08970579661816
    vertex -3.001086226504239 1.942769314005467 3.615608002008567
    vertex 1.9986161503676985 1.8882152793158493 3.615608002008554
  endloop
endfacet
facet normal -0.009907569926580205 -0.9079970197028625 -0.4188594660132079
  outer loop
    vertex -3.001086226504239 1.942769314005467 3.615608002008567
    vertex 1.9962300820952044 1.6695397719722846 4.08970579661816
    vertex -3.003472294776733 1.7240938066619074 4.089705796618175
  endloop
endfacet
facet normal -0.010752805231675374 -0.9854601255565383 -0.16956626468062966
  outer loop
    vertex 1.9986161503676985 1.8882152793158493 3.615608002008554
    vertex -3.000120277977174 2.031295399640637 3.101063942871737
    vertex 1.9995820988947641 1.9767413649510153 3.101063942871727
  endloop
endfacet
facet normal -0.010752805231675374 -0.9854601255565383 -0.16956626468062966
  outer loop
    vertex -3.000120277977174 2.031295399640637 3.101063942871737
    vertex 1.9986161503676985 1.8882152793158493 3.615608002008554
    vertex -3.001086226504239 1.942769314005467 3.615608002008567
  endloop
endfacet
facet normal -0.010865254630083202 -0.9957657524033937 0.09128259736842916
  outer loop
    vertex 1.9995820988947641 1.9767413649510153 3.101063942871727
    vertex -3.0006402769913696 1.9836391571276657 2.581138946513586
    vertex 1.999062099880566 1.9290851224380476 2.5811389465135752
  endloop
endfacet
facet normal -0.010865254630083202 -0.9957657524033937 0.09128259736842916
  outer loop
    vertex -3.0006402769913696 1.9836391571276657 2.581138946513586
    vertex 1.9995820988947641 1.9767413649510153 3.101063942871727
    vertex -3.000120277977174 2.031295399640637 3.101063942871737
  endloop
endfacet
facet normal 0.9999404753743912 -0.010910806937923831 -3.031796068849493e-15
  outer loop
    vertex 1.9374564127941138 -3.7168785887222358 1.4913710394198634
    vertex 1.9345076437584527 -3.9871238169687024 3.544209537760424
    vertex 1.9345076437584514 -3.987123816968706 2.500000000000013
  endloop
endfacet
facet normal 0.9999404753743912 -0.010910806937923831 -3.031796068849493e-15
  outer loop
    vertex 1.9345076437584527 -3.9871238169687024 3.544209537760424
    vertex 1.9374564127941138 -3.7168785887222358 1.4913710394198634
    vertex 1.937456412794116 -3.716878588722219 4.552838498340568
  endloop
endfacet
facet normal 0.9999404753743912 -0.010910806937923831 -3.031796068849493e-15
  outer loop
    vertex 1.937456412794116 -3.716878588722219 4.552838498340568
    vertex 1.9374564127941138 -3.7168785887222358 1.4913710394198634
    vertex 1.9431529971287285 -3.194804897932921 0.5870590528453391
  endloop
endfacet
facet normal 0.9999404753743912 -0.010910806937923831 -3.031796068849493e-15
  outer loop
    vertex 1.937456412794116 -3.716878588722219 4.552838498340568
    vertex 1.9431529971287285 -3.194804897932921 0.5870590528453391
    vertex 1.9431529971287547 -3.194804897932923 5.4571504849151
  endloop
endfacet
facet normal 0.9999404753743912 -0.010910806937923831 -3.031796068849493e-15
  outer loop
    vertex 1.9431529971287547 -3.194804897932923 5.4571504849151
    vertex 1.9431529971287285 -3.194804897932921 0.5870590528453391
    vertex 1.949459840866954 -2.616802889322733 6.035186900926549
  endloop
endfacet
facet normal 0.9999404753743912 -0.010910806937923831 -3.031796068849493e-15
  outer loop
    vertex 1.949459840866954 -2.616802889322733 6.035186900926549
    vertex 1.9431529971287285 -3.194804897932921 0.5870590528453391
    vertex 1.9512091839539538 -2.456481203860504 -0.1513085922847157
  endloop
endfacet
facet normal 0.9999404753743912 -0.010910806937923831 -3.031796068849493e-15
  outer loop
    vertex 1.9401758738160146 -3.467648704775512 32.73222454053655
    vertex 1.9389952216808843 -3.575851687729551 48.86317980105135
    vertex 1.9166849011052767 -5.620521040711617 37.50077972480139
  endloop
endfacet
facet normal 0.9999404753743912 -0.010910806937923831 -3.031796068849493e-15
  outer loop
    vertex 1.9389952216808843 -3.575851687729551 48.86317980105135
    vertex 1.9401758738160146 -3.467648704775512 32.73222454053655
    vertex 1.9397387751429078 -3.5077073968125565 48.345541710846305
  endloop
endfacet
facet normal 0.9999404753743912 -0.010910806937923831 -3.031796068849493e-15
  outer loop
    vertex 1.9397387751429078 -3.5077073968125565 48.345541710846305
    vertex 1.9401758738160146 -3.467648704775512 32.73222454053655
    vertex 1.9669728425125463 -1.011792435902587 37.957286325939435
  endloop
endfacet
facet normal 0.9999404753743912 -0.010910806937923831 -3.031796068849493e-15
  outer loop
    vertex 1.9669728425125463 -1.011792435902587 37.957286325939435
    vertex 1.9401758738160146 -3.467648704775512 32.73222454053655
    vertex 1.949459840866954 -2.616802889322733 6.035186900926549
  endloop
endfacet
facet normal 0.9999404753743912 -0.010910806937923831 -3.031796068849493e-15
  outer loop
    vertex 1.9669728425125463 -1.011792435902587 37.957286325939435
    vertex 1.949459840866954 -2.616802889322733 6.035186900926549
    vertex 1.9512091839539538 -2.456481203860504 -0.1513085922847157
  endloop
endfacet
facet normal 0.9999404753743912 -0.010910806937923831 -3.031796068849493e-15
  outer loop
    vertex 1.9669728425125463 -1.011792435902587 37.957286325939435
    vertex 1.9512091839539538 -2.456481203860504 -0.1513085922847157
    vertex 1.9559728963985092 -2.019902230971429 2.943145594888707
  endloop
endfacet
facet normal 0.9999404753743912 -0.010910806937923831 -3.031796068849493e-15
  outer loop
    vertex 1.9669728425125463 -1.011792435902587 37.957286325939435
    vertex 1.9559728963985092 -2.019902230971429 2.943145594888707
    vertex 1.9564928954127048 -1.9722459884584616 3.4630705912468596
  endloop
endfacet
facet normal 0.9999404753743912 -0.010910806937923831 -3.031796068849493e-15
  outer loop
    vertex 1.9669728425125463 -1.011792435902587 37.957286325939435
    vertex 1.9564928954127048 -1.9722459884584616 3.4630705912468596
    vertex 1.9584634048946736 -1.7916551119689448 3.9529444955411934
  endloop
endfacet
facet normal 0.9999404753743912 -0.010910806937923831 -3.031796068849493e-15
  outer loop
    vertex 1.9669728425125463 -1.011792435902587 37.957286325939435
    vertex 1.9584634048946736 -1.7916551119689448 3.9529444955411934
    vertex 1.9617501378796374 -1.490436571295097 4.379383210748973
  endloop
endfacet
facet normal 0.9999404753743912 -0.010910806937923831 -3.031796068849493e-15
  outer loop
    vertex 1.9669728425125463 -1.011792435902587 37.957286325939435
    vertex 1.9617501378796374 -1.490436571295097 4.379383210748973
    vertex 1.966129108946262 -1.0891179121966768 4.713325643152068
  endloop
endfacet
facet normal 0.9999404753743912 -0.010910806937923831 -3.031796068849493e-15
  outer loop
    vertex 1.9669728425125463 -1.011792435902587 37.957286325939435
    vertex 1.966129108946262 -1.0891179121966768 4.713325643152068
    vertex 1.9713018984529427 -0.615048338080801 4.932014167848183
  endloop
endfacet
facet normal 0.9999404753743912 -0.010910806937923831 -3.031796068849493e-15
  outer loop
    vertex 1.9669728425125463 -1.011792435902587 37.957286325939435
    vertex 1.9713018984529427 -0.615048338080801 4.932014167848183
    vertex 1.9818948959708824 0.3557659228510194 48.345541710846305
  endloop
endfacet
facet normal 0.9999404753743912 -0.010910806937923831 -3.031796068849493e-15
  outer loop
    vertex 1.9818948959708824 0.3557659228510194 48.345541710846305
    vertex 1.9713018984529427 -0.615048338080801 4.932014167848183
    vertex 1.9769159893432455 -0.1005349069864444 5.020545523279145
  endloop
endfacet
facet normal 0.9999404753743912 -0.010910806937923831 -3.031796068849493e-15
  outer loop
    vertex 1.9818948959708824 0.3557659228510194 48.345541710846305
    vertex 1.9769159893432455 -0.1005349069864444 5.020545523279145
    vertex 1.9825887906007054 0.419359141030955 4.972886443877309
  endloop
endfacet
facet normal 0.9999404753743912 -0.010910806937923831 -3.031796068849493e-15
  outer loop
    vertex 1.9818948959708824 0.3557659228510194 48.345541710846305
    vertex 1.9825887906007054 0.419359141030955 4.972886443877309
    vertex 1.9826384494325762 0.4239102137680184 48.86317980105135
  endloop
endfacet
facet normal 0.9999404753743912 -0.010910806937923831 -3.031796068849493e-15
  outer loop
    vertex 1.9826384494325762 0.4239102137680184 48.86317980105135
    vertex 1.9825887906007054 0.419359141030955 4.972886443877309
    vertex 1.987933710194391 0.9092038857645446 4.792284817143576
  endloop
endfacet
facet normal 0.9999404753743912 -0.010910806937923831 -3.031796068849493e-15
  outer loop
    vertex 1.9610759574511174 -1.5522230461184128 -0.6734133611649143
    vertex 1.9559728963985092 -2.019902230971429 2.943145594888707
    vertex 1.9512091839539538 -2.456481203860504 -0.1513085922847157
  endloop
endfacet
facet normal 0.9999404753743912 -0.010910806937923831 -3.031796068849493e-15
  outer loop
    vertex 1.9559728963985092 -2.019902230971429 2.943145594888707
    vertex 1.9610759574511174 -1.5522230461184128 -0.6734133611649143
    vertex 1.9569388449255658 -1.9313761453362608 2.4286015357518758
  endloop
endfacet
facet normal 0.9999404753743912 -0.010910806937923831 -3.031796068849493e-15
  outer loop
    vertex 1.9569388449255658 -1.9313761453362608 2.4286015357518758
    vertex 1.9610759574511174 -1.5522230461184128 -0.6734133611649143
    vertex 1.9593249131980663 -1.7127006379927072 1.954503741142271
  endloop
endfacet
facet normal 0.9999404753743912 -0.010910806937923831 -3.031796068849493e-15
  outer loop
    vertex 1.9593249131980663 -1.7127006379927072 1.954503741142271
    vertex 1.9610759574511174 -1.5522230461184128 -0.6734133611649143
    vertex 1.9629684946063959 -1.3787780833878682 1.55316119227889
  endloop
endfacet
facet normal 0.9999404753743912 -0.010910806937923831 -3.031796068849493e-15
  outer loop
    vertex 1.9629684946063959 -1.3787780833878682 1.55316119227889
    vertex 1.9610759574511174 -1.5522230461184128 -0.6734133611649143
    vertex 1.972080913312003 -0.5436541237995164 -0.9436746766150101
  endloop
endfacet
facet normal 0.9999404753743912 -0.010910806937923831 -3.031796068849493e-15
  outer loop
    vertex 1.9629684946063959 -1.3787780833878682 1.55316119227889
    vertex 1.972080913312003 -0.5436541237995164 -0.9436746766150101
    vertex 1.9676212850988861 -0.952364751784961 1.2519247206168518
  endloop
endfacet
facet normal 0.9999404753743912 -0.010910806937923831 -3.031796068849493e-15
  outer loop
    vertex 1.9676212850988861 -0.952364751784961 1.2519247206168518
    vertex 1.972080913312003 -0.5436541237995164 -0.9436746766150101
    vertex 1.9729662046925687 -0.4625200070513667 1.0713230938831153
  endloop
endfacet
facet normal 0.9999404753743912 -0.010910806937923831 -3.031796068849493e-15
  outer loop
    vertex 1.9729662046925687 -0.4625200070513667 1.0713230938831153
    vertex 1.972080913312003 -0.5436541237995164 -0.9436746766150101
    vertex 1.9834740819812458 0.5004932577791017 -0.9436746766150104
  endloop
endfacet
facet normal 0.9999404753743912 -0.010910806937923831 -3.031796068849493e-15
  outer loop
    vertex 1.9729662046925687 -0.4625200070513667 1.0713230938831153
    vertex 1.9834740819812458 0.5004932577791017 -0.9436746766150104
    vertex 1.978639005950028 0.05737404096603101 1.0236640144812867
  endloop
endfacet
facet normal 0.9999404753743912 -0.010910806937923831 -3.031796068849493e-15
  outer loop
    vertex 1.978639005950028 0.05737404096603101 1.0236640144812867
    vertex 1.9834740819812458 0.5004932577791017 -0.9436746766150104
    vertex 1.9842530968403271 0.5718874720603867 1.1121953699122473
  endloop
endfacet
facet normal 0.9999404753743912 -0.010910806937923831 -3.031796068849493e-15
  outer loop
    vertex 1.9842530968403271 0.5718874720603867 1.1121953699122473
    vertex 1.9834740819812458 0.5004932577791017 -0.9436746766150104
    vertex 1.9944790378421362 1.5090621800980006 -0.6734133611649158
  endloop
endfacet
facet normal 0.9999404753743912 -0.010910806937923831 -3.031796068849493e-15
  outer loop
    vertex 1.9842530968403271 0.5718874720603867 1.1121953699122473
    vertex 1.9944790378421362 1.5090621800980006 -0.6734133611649158
    vertex 1.9894258863470093 1.0459570461762635 1.3308838946083619
  endloop
endfacet
facet normal 0.9999404753743912 -0.010910806937923831 -3.031796068849493e-15
  outer loop
    vertex 1.9894258863470093 1.0459570461762635 1.3308838946083619
    vertex 1.9944790378421362 1.5090621800980006 -0.6734133611649158
    vertex 1.9938048574136362 1.4472757052746876 1.6648263270114605
  endloop
endfacet
facet normal 0.9999404753743912 -0.010910806937923831 -3.031796068849493e-15
  outer loop
    vertex 1.9938048574136362 1.4472757052746876 1.6648263270114605
    vertex 1.9944790378421362 1.5090621800980006 -0.6734133611649158
    vertex 1.9970915903985977 1.748494245948534 2.0912650422192343
  endloop
endfacet
facet normal 0.9999404753743912 -0.010910806937923831 -3.031796068849493e-15
  outer loop
    vertex 1.9970915903985977 1.748494245948534 2.0912650422192343
    vertex 1.9944790378421362 1.5090621800980006 -0.6734133611649158
    vertex 2.0043458113393022 2.41332033784009 -0.15130859228471816
  endloop
endfacet
facet normal 0.9999404753743912 -0.010910806937923831 -3.031796068849493e-15
  outer loop
    vertex 1.9970915903985977 1.748494245948534 2.0912650422192343
    vertex 2.0043458113393022 2.41332033784009 -0.15130859228471816
    vertex 1.999062099880566 1.9290851224380476 2.5811389465135752
  endloop
endfacet
facet normal 0.9999404753743912 -0.010910806937923831 -3.031796068849493e-15
  outer loop
    vertex 1.999062099880566 1.9290851224380476 2.5811389465135752
    vertex 2.0043458113393022 2.41332033784009 -0.15130859228471816
    vertex 1.9995820988947641 1.9767413649510153 3.101063942871727
  endloop
endfacet
facet normal 0.9999404753743912 -0.010910806937923831 -3.031796068849493e-15
  outer loop
    vertex 1.9995820988947641 1.9767413649510153 3.101063942871727
    vertex 2.0043458113393022 2.41332033784009 -0.15130859228471816
    vertex 2.00434581133934 2.413320337840089 6.195518130045169
  endloop
endfacet
facet normal 0.9999404753743912 -0.010910806937923831 -3.031796068849493e-15
  outer loop
    vertex 2.00434581133934 2.413320337840089 6.195518130045169
    vertex 2.0043458113393022 2.41332033784009 -0.15130859228471816
    vertex 2.0124019981645507 3.1516440319125025 5.457150484915108
  endloop
endfacet
facet normal 0.9999404753743912 -0.010910806937923831 -3.031796068849493e-15
  outer loop
    vertex 2.0124019981645507 3.1516440319125025 5.457150484915108
    vertex 2.0043458113393022 2.41332033784009 -0.15130859228471816
    vertex 2.0124019981645267 3.151644031912506 0.5870590528453428
  endloop
endfacet
facet normal 0.9999404753743912 -0.010910806937923831 -3.031796068849493e-15
  outer loop
    vertex 2.0124019981645507 3.1516440319125025 5.457150484915108
    vertex 2.0124019981645267 3.151644031912506 0.5870590528453428
    vertex 2.018098582499156 3.6737177227018165 4.552838498340571
  endloop
endfacet
facet normal 0.9999404753743912 -0.010910806937923831 -3.031796068849493e-15
  outer loop
    vertex 2.018098582499156 3.6737177227018165 4.552838498340571
    vertex 2.0124019981645267 3.151644031912506 0.5870590528453428
    vertex 2.018098582499155 3.673717722701812 1.4913710394198625
  endloop
endfacet
facet normal 0.9999404753743912 -0.010910806937923831 -3.031796068849493e-15
  outer loop
    vertex 2.018098582499156 3.6737177227018165 4.552838498340571
    vertex 2.018098582499155 3.673717722701812 1.4913710394198625
    vertex 2.0210473515348166 3.9439629509482867 2.5000000000000164
  endloop
endfacet
facet normal 0.9999404753743912 -0.010910806937923831 -3.031796068849493e-15
  outer loop
    vertex 2.018098582499156 3.6737177227018165 4.552838498340571
    vertex 2.0210473515348166 3.9439629509482867 2.5000000000000164
    vertex 2.0210473515348255 3.9439629509482987 3.5442095377604255
  endloop
endfacet
facet normal 0.9999404753743912 -0.010910806937923831 -3.031796068849493e-15
  outer loop
    vertex 1.9962300820952044 1.6695397719722846 4.08970579661816
    vertex 1.9934943125447608 1.4188152636514875 37.40016051788794
    vertex 1.9925865006868761 1.3356172173674568 4.491048345481544
  endloop
endfacet
facet normal 0.9999404753743912 -0.010910806937923831 -3.031796068849493e-15
  outer loop
    vertex 1.9934943125447608 1.4188152636514875 37.40016051788794
    vertex 1.9962300820952044 1.6695397719722846 4.08970579661816
    vertex 1.9951530722559196 1.570835273129919 32.63022001714062
  endloop
endfacet
facet normal 0.9999404753743912 -0.010910806937923831 -3.031796068849493e-15
  outer loop
    vertex 1.9951530722559196 1.570835273129919 32.63022001714062
    vertex 1.9962300820952044 1.6695397719722846 4.08970579661816
    vertex 2.00434581133934 2.413320337840089 6.195518130045169
  endloop
endfacet
facet normal 0.9999404753743912 -0.010910806937923831 -3.031796068849493e-15
  outer loop
    vertex 2.00434581133934 2.413320337840089 6.195518130045169
    vertex 1.9962300820952044 1.6695397719722846 4.08970579661816
    vertex 1.9986161503676985 1.8882152793158493 3.615608002008554
  endloop
endfacet
facet normal 0.9999404753743912 -0.010910806937923831 -3.031796068849493e-15
  outer loop
    vertex 2.00434581133934 2.413320337840089 6.195518130045169
    vertex 1.9986161503676985 1.8882152793158493 3.615608002008554
    vertex 1.9995820988947641 1.9767413649510153 3.101063942871727
  endloop
endfacet
facet normal 0.9999404753743912 -0.010910806937923831 -3.031796068849493e-15
  outer loop
    vertex 1.9113132204643537 -6.112818349631484 52.94762044190407
    vertex 1.9499060286188052 -2.575911212355158 50.595230608620234
    vertex 2.009820268193734 2.915036757205174 53.23537623638791
  endloop
endfacet
facet normal 0.9999404753743912 -0.010910806937923831 -3.031796068849493e-15
  outer loop
    vertex 1.9499060286188052 -2.575911212355158 50.595230608620234
    vertex 1.9113132204643537 -6.112818349631484 52.94762044190407
    vertex 1.9453866244086835 -2.9901001188210308 50.27739336342445
  endloop
endfacet
facet normal 0.9999404753743912 -0.010910806937923831 -3.031796068849493e-15
  outer loop
    vertex 1.9453866244086835 -2.9901001188210308 50.27739336342445
    vertex 1.9113132204643537 -6.112818349631484 52.94762044190407
    vertex 1.9419187635886714 -3.3079184448737893 49.86317980105136
  endloop
endfacet
facet normal 0.9999404753743912 -0.010910806937923831 -3.031796068849493e-15
  outer loop
    vertex 1.9419187635886714 -3.3079184448737893 49.86317980105136
    vertex 1.9113132204643537 -6.112818349631484 52.94762044190407
    vertex 1.9397387751427422 -3.5077073968125534 49.3808178912564
  endloop
endfacet
facet normal 0.9999404753743912 -0.010910806937923831 -3.031796068849493e-15
  outer loop
    vertex 1.9397387751427422 -3.5077073968125534 49.3808178912564
    vertex 1.9113132204643537 -6.112818349631484 52.94762044190407
    vertex 1.9166849011052767 -5.620521040711617 37.50077972480139
  endloop
endfacet
facet normal 0.9999404753743912 -0.010910806937923831 -3.031796068849493e-15
  outer loop
    vertex 1.9397387751427422 -3.5077073968125534 49.3808178912564
    vertex 1.9166849011052767 -5.620521040711617 37.50077972480139
    vertex 1.9389952216808843 -3.575851687729551 48.86317980105135
  endloop
endfacet
facet normal 0.9999404753743912 -0.010910806937923831 -3.031796068849493e-15
  outer loop
    vertex 2.009820268193734 2.915036757205174 53.23537623638791
    vertex 1.9499060286188052 -2.575911212355158 50.595230608620234
    vertex 1.955168986290786 -2.0935780149722873 50.79503145362949
  endloop
endfacet
facet normal 0.9999404753743912 -0.010910806937923831 -3.031796068849493e-15
  outer loop
    vertex 2.009820268193734 2.915036757205174 53.23537623638791
    vertex 1.955168986290786 -2.0935780149722873 50.79503145362949
    vertex 1.9608168355567281 -1.5759707369807656 50.86317980105136
  endloop
endfacet
facet normal 0.9999404753743912 -0.010910806937923831 -3.031796068849493e-15
  outer loop
    vertex 2.009820268193734 2.915036757205174 53.23537623638791
    vertex 1.9608168355567281 -1.5759707369807656 50.86317980105136
    vertex 1.9664646848226706 -1.0583634589892437 50.79503145362949
  endloop
endfacet
facet normal 0.9999404753743912 -0.010910806937923831 -3.031796068849493e-15
  outer loop
    vertex 2.009820268193734 2.915036757205174 53.23537623638791
    vertex 1.9664646848226706 -1.0583634589892437 50.79503145362949
    vertex 1.9717276424946513 -0.576030261606373 50.595230608620234
  endloop
endfacet
facet normal 0.9999404753743912 -0.010910806937923831 -3.031796068849493e-15
  outer loop
    vertex 2.009820268193734 2.915036757205174 53.23537623638791
    vertex 1.9717276424946513 -0.576030261606373 50.595230608620234
    vertex 1.9762470467047737 -0.16184135514050055 50.27739336342445
  endloop
endfacet
facet normal 0.9999404753743912 -0.010910806937923831 -3.031796068849493e-15
  outer loop
    vertex 2.009820268193734 2.915036757205174 53.23537623638791
    vertex 1.9762470467047737 -0.16184135514050055 50.27739336342445
    vertex 1.9797149075247868 0.1559769709122571 49.86317980105135
  endloop
endfacet
facet normal 0.9999404753743912 -0.010910806937923831 -3.031796068849493e-15
  outer loop
    vertex 2.009820268193734 2.915036757205174 53.23537623638791
    vertex 1.9797149075247868 0.1559769709122571 49.86317980105135
    vertex 1.9818948959707172 0.3557659228510213 49.38081789125639
  endloop
endfacet
facet normal 0.9999404753743912 -0.010910806937923831 -3.031796068849493e-15
  outer loop
    vertex 2.009820268193734 2.915036757205174 53.23537623638791
    vertex 1.9818948959707172 0.3557659228510213 49.38081789125639
    vertex 1.9826384494325762 0.4239102137680184 48.86317980105135
  endloop
endfacet
facet normal 0.9999404753743912 -0.010910806937923831 -3.031796068849493e-15
  outer loop
    vertex 2.009820268193734 2.915036757205174 53.23537623638791
    vertex 1.9826384494325762 0.4239102137680184 48.86317980105135
    vertex 1.9934943125447608 1.4188152636514875 37.40016051788794
  endloop
endfacet
facet normal 0.9999404753743912 -0.010910806937923831 -3.031796068849493e-15
  outer loop
    vertex 1.9934943125447608 1.4188152636514875 37.40016051788794
    vertex 1.9826384494325762 0.4239102137680184 48.86317980105135
    vertex 1.987933710194391 0.9092038857645446 4.792284817143576
  endloop
endfacet
facet normal 0.9999404753743912 -0.010910806937923831 -3.031796068849493e-15
  outer loop
    vertex 1.9934943125447608 1.4188152636514875 37.40016051788794
    vertex 1.987933710194391 0.9092038857645446 4.792284817143576
    vertex 1.9925865006868761 1.3356172173674568 4.491048345481544
  endloop
endfacet
facet normal 0.9999404753743912 -0.010910806937923831 -3.031796068849493e-15
  outer loop
    vertex 2.009820268193734 2.915036757205174 53.23537623638791
    vertex 1.9934943125447608 1.4188152636514875 37.40016051788794
    vertex 2.015304851173257 3.4176812034884008 37.46387280057056
  endloop
endfacet
facet normal -0.00034757620795967134 -0.03185424511642194 0.9994924643331949
  outer loop
    vertex 1.9113132204643537 -6.112818349631484 52.94762044190407
    vertex -2.989882108678243 2.9695907918947886 53.23537623638792
    vertex -3.0883891564076147 -6.058264314941866 52.947620441904085
  endloop
endfacet
facet normal -0.00034757620795967134 -0.03185424511642194 0.9994924643331949
  outer loop
    vertex -2.989882108678243 2.9695907918947886 53.23537623638792
    vertex 1.9113132204643537 -6.112818349631484 52.94762044190407
    vertex 2.009820268193734 2.915036757205174 53.23537623638791
  endloop
endfacet
facet normal -0.010817463472045267 -0.9913858459896254 0.13052619222005166
  outer loop
    vertex 1.9818948959708824 0.3557659228510194 48.345541710846305
    vertex -3.032729534359573 -0.9572384012129704 37.95728632593944
    vertex 1.9669728425125463 -1.011792435902587 37.957286325939435
  endloop
endfacet
facet normal -0.010817463472045267 -0.9913858459896254 0.13052619222005166
  outer loop
    vertex -3.032729534359573 -0.9572384012129704 37.95728632593944
    vertex 1.9818948959708824 0.3557659228510194 48.345541710846305
    vertex -3.0178074809012365 0.410319957540636 48.34554171084631
  endloop
endfacet
facet normal 0.01060886180109085 0.9722681716319577 0.23362802589316084
  outer loop
    vertex -3.032729534359573 -0.9572384012129704 37.95728632593944
    vertex 1.9397387751429078 -3.5077073968125565 48.345541710846305
    vertex 1.9669728425125463 -1.011792435902587 37.957286325939435
  endloop
endfacet
facet normal 0.01060886180109085 0.9722681716319577 0.23362802589316084
  outer loop
    vertex 1.9397387751429078 -3.5077073968125565 48.345541710846305
    vertex -3.032729534359573 -0.9572384012129704 37.95728632593944
    vertex -3.0599636017292116 -3.4531533621229387 48.34554171084631
  endloop
endfacet
facet normal -0.010817463472045352 -0.9913858459896254 0.13052619222005107
  outer loop
    vertex 1.9826384494325762 0.4239102137680184 48.86317980105135
    vertex -3.0178074809012365 0.410319957540636 48.34554171084631
    vertex 1.9818948959708824 0.3557659228510194 48.345541710846305
  endloop
endfacet
facet normal -0.010817463472045352 -0.9913858459896254 0.13052619222005107
  outer loop
    vertex -3.0178074809012365 0.410319957540636 48.34554171084631
    vertex 1.9826384494325762 0.4239102137680184 48.86317980105135
    vertex -3.0170639274393785 0.4784642484576331 48.86317980105135
  endloop
endfacet
facet normal 0.01081746347204569 0.9913858459896256 0.13052619222005002
  outer loop
    vertex -3.0599636017292116 -3.4531533621229387 48.34554171084631
    vertex 1.9389952216808843 -3.575851687729551 48.86317980105135
    vertex 1.9397387751429078 -3.5077073968125565 48.345541710846305
  endloop
endfacet
facet normal 0.01081746347204569 0.9913858459896256 0.13052619222005002
  outer loop
    vertex 1.9389952216808843 -3.575851687729551 48.86317980105135
    vertex -3.0599636017292116 -3.4531533621229387 48.34554171084631
    vertex -3.0607071551910705 -3.5212976530399356 48.86317980105135
  endloop
endfacet
facet normal 0.010817463472045567 0.9913858459896254 -0.13052619222005094
  outer loop
    vertex -3.0599636017292124 -3.453153362122938 49.3808178912564
    vertex 1.9389952216808843 -3.575851687729551 48.86317980105135
    vertex -3.0607071551910705 -3.5212976530399356 48.86317980105135
  endloop
endfacet
facet normal 0.010817463472045567 0.9913858459896254 -0.13052619222005094
  outer loop
    vertex 1.9389952216808843 -3.575851687729551 48.86317980105135
    vertex -3.0599636017292124 -3.453153362122938 49.3808178912564
    vertex 1.9397387751427422 -3.5077073968125534 49.3808178912564
  endloop
endfacet
facet normal 0.010080271213129561 0.923824538928006 -0.3826834323650911
  outer loop
    vertex -3.0577836132832834 -3.2533644101841737 49.86317980105136
    vertex 1.9397387751427422 -3.5077073968125534 49.3808178912564
    vertex -3.0599636017292124 -3.453153362122938 49.3808178912564
  endloop
endfacet
facet normal 0.010080271213129561 0.923824538928006 -0.3826834323650911
  outer loop
    vertex 1.9397387751427422 -3.5077073968125534 49.3808178912564
    vertex -3.0577836132832834 -3.2533644101841737 49.86317980105136
    vertex 1.9419187635886714 -3.3079184448737893 49.86317980105136
  endloop
endfacet
facet normal 0.008656125129474597 0.7933061162306783 -0.6087614290087217
  outer loop
    vertex -3.054315752463271 -2.9355460841314156 50.27739336342445
    vertex 1.9419187635886714 -3.3079184448737893 49.86317980105136
    vertex -3.0577836132832834 -3.2533644101841737 49.86317980105136
  endloop
endfacet
facet normal 0.008656125129474597 0.7933061162306783 -0.6087614290087217
  outer loop
    vertex 1.9419187635886714 -3.3079184448737893 49.86317980105136
    vertex -3.054315752463271 -2.9355460841314156 50.27739336342445
    vertex 1.9453866244086835 -2.9901001188210308 50.27739336342445
  endloop
endfacet
facet normal 0.006642078423169052 0.6087251927125708 -0.7933533402912377
  outer loop
    vertex -3.0497963482531496 -2.521357177665543 50.595230608620234
    vertex 1.9453866244086835 -2.9901001188210308 50.27739336342445
    vertex -3.054315752463271 -2.9355460841314156 50.27739336342445
  endloop
endfacet
facet normal 0.006642078423169052 0.6087251927125708 -0.7933533402912377
  outer loop
    vertex 1.9453866244086835 -2.9901001188210308 50.27739336342445
    vertex -3.0497963482531496 -2.521357177665543 50.595230608620234
    vertex 1.9499060286188052 -2.575911212355158 50.595230608620234
  endloop
endfacet
facet normal 0.004175385048878187 0.3826606532770526 -0.9238795325112863
  outer loop
    vertex -3.0445333905811687 -2.039023980282672 50.79503145362949
    vertex 1.9499060286188052 -2.575911212355158 50.595230608620234
    vertex -3.0497963482531496 -2.521357177665543 50.595230608620234
  endloop
endfacet
facet normal 0.004175385048878187 0.3826606532770526 -0.9238795325112863
  outer loop
    vertex 1.9499060286188052 -2.575911212355158 50.595230608620234
    vertex -3.0445333905811687 -2.039023980282672 50.79503145362949
    vertex 1.955168986290786 -2.0935780149722873 50.79503145362949
  endloop
endfacet
facet normal 0.0014241460836563796 0.13051842269733827 -0.991444861373809
  outer loop
    vertex -3.0388855413152265 -1.5214167022911511 50.86317980105136
    vertex 1.955168986290786 -2.0935780149722873 50.79503145362949
    vertex -3.0445333905811687 -2.039023980282672 50.79503145362949
  endloop
endfacet
facet normal 0.0014241460836563796 0.13051842269733827 -0.991444861373809
  outer loop
    vertex 1.955168986290786 -2.0935780149722873 50.79503145362949
    vertex -3.0388855413152265 -1.5214167022911511 50.86317980105136
    vertex 1.9608168355567281 -1.5759707369807656 50.86317980105136
  endloop
endfacet
facet normal -0.0014241460836542591 -0.13051842269733815 -0.991444861373809
  outer loop
    vertex -3.0332376920492843 -1.0038094242996292 50.79503145362949
    vertex 1.9608168355567281 -1.5759707369807656 50.86317980105136
    vertex -3.0388855413152265 -1.5214167022911511 50.86317980105136
  endloop
endfacet
facet normal -0.0014241460836542591 -0.13051842269733815 -0.991444861373809
  outer loop
    vertex 1.9608168355567281 -1.5759707369807656 50.86317980105136
    vertex -3.0332376920492843 -1.0038094242996292 50.79503145362949
    vertex 1.9664646848226706 -1.0583634589892437 50.79503145362949
  endloop
endfacet
facet normal -0.004175385048876211 -0.3826606532770524 -0.9238795325112864
  outer loop
    vertex -3.0279747343773034 -0.5214762269167583 50.595230608620234
    vertex 1.9664646848226706 -1.0583634589892437 50.79503145362949
    vertex -3.0332376920492843 -1.0038094242996292 50.79503145362949
  endloop
endfacet
facet normal -0.004175385048876211 -0.3826606532770524 -0.9238795325112864
  outer loop
    vertex 1.9664646848226706 -1.0583634589892437 50.79503145362949
    vertex -3.0279747343773034 -0.5214762269167583 50.595230608620234
    vertex 1.9717276424946513 -0.576030261606373 50.595230608620234
  endloop
endfacet
facet normal -0.006642078423167358 -0.6087251927125709 -0.7933533402912375
  outer loop
    vertex -3.023455330167181 -0.1072873204508858 50.27739336342445
    vertex 1.9717276424946513 -0.576030261606373 50.595230608620234
    vertex -3.0279747343773034 -0.5214762269167583 50.595230608620234
  endloop
endfacet
facet normal -0.006642078423167358 -0.6087251927125709 -0.7933533402912375
  outer loop
    vertex 1.9717276424946513 -0.576030261606373 50.595230608620234
    vertex -3.023455330167181 -0.1072873204508858 50.27739336342445
    vertex 1.9762470467047737 -0.16184135514050055 50.27739336342445
  endloop
endfacet
facet normal -0.008656125129473344 -0.7933061162306826 -0.608761429008716
  outer loop
    vertex 1.9762470467047737 -0.16184135514050055 50.27739336342445
    vertex -3.0199874693471678 0.21053100560187182 49.86317980105135
    vertex 1.9797149075247868 0.1559769709122571 49.86317980105135
  endloop
endfacet
facet normal -0.008656125129473344 -0.7933061162306826 -0.608761429008716
  outer loop
    vertex -3.0199874693471678 0.21053100560187182 49.86317980105135
    vertex 1.9762470467047737 -0.16184135514050055 50.27739336342445
    vertex -3.023455330167181 -0.1072873204508858 50.27739336342445
  endloop
endfacet
facet normal -0.010080271213128746 -0.9238245389280062 -0.3826834323650905
  outer loop
    vertex 1.9797149075247868 0.1559769709122571 49.86317980105135
    vertex -3.0178074809012374 0.410319957540636 49.38081789125639
    vertex 1.9818948959707172 0.3557659228510213 49.38081789125639
  endloop
endfacet
facet normal -0.010080271213128746 -0.9238245389280062 -0.3826834323650905
  outer loop
    vertex -3.0178074809012374 0.410319957540636 49.38081789125639
    vertex 1.9797149075247868 0.1559769709122571 49.86317980105135
    vertex -3.0199874693471678 0.21053100560187182 49.86317980105135
  endloop
endfacet
facet normal -0.010817463472045286 -0.9913858459896253 -0.13052619222005168
  outer loop
    vertex 1.9818948959707172 0.3557659228510213 49.38081789125639
    vertex -3.0170639274393785 0.4784642484576331 48.86317980105135
    vertex 1.9826384494325762 0.4239102137680184 48.86317980105135
  endloop
endfacet
facet normal -0.010817463472045286 -0.9913858459896253 -0.13052619222005168
  outer loop
    vertex -3.0170639274393785 0.4784642484576331 48.86317980105135
    vertex 1.9818948959707172 0.3557659228510213 49.38081789125639
    vertex -3.0178074809012374 0.410319957540636 49.38081789125639
  endloop
endfacet
facet normal 0.010905269314248255 0.9994329699184566 0.03185614134130854
  outer loop
    vertex -2.995356565532637 2.4678743725297037 6.195518130045181
    vertex 1.9951530722559196 1.570835273129919 32.63022001714062
    vertex 2.00434581133934 2.413320337840089 6.195518130045169
  endloop
endfacet
facet normal 0.010905269314248255 0.9994329699184566 0.03185614134130854
  outer loop
    vertex 1.9951530722559196 1.570835273129919 32.63022001714062
    vertex -2.995356565532637 2.4678743725297037 6.195518130045181
    vertex -3.0045493046160354 1.6253893078195327 32.63022001714063
  endloop
endfacet
facet normal 0.010905269314248369 0.9994329699184566 0.031856141341308604
  outer loop
    vertex -2.9843975256987205 3.4722352381780155 37.46387280057058
    vertex 2.009820268193734 2.915036757205174 53.23537623638791
    vertex 2.015304851173257 3.4176812034884008 37.46387280057056
  endloop
endfacet
facet normal 0.010905269314248369 0.9994329699184566 0.031856141341308604
  outer loop
    vertex 2.009820268193734 2.915036757205174 53.23537623638791
    vertex -2.9843975256987205 3.4722352381780155 37.46387280057058
    vertex -2.989882108678243 2.9695907918947886 53.23537623638792
  endloop
endfacet
facet normal 0.0003475762079599629 0.03185424511642348 -0.9994924643331947
  outer loop
    vertex -2.9843975256987205 3.4722352381780155 37.46387280057058
    vertex 1.9934943125447608 1.4188152636514875 37.40016051788794
    vertex -3.0062080643272173 1.473369298341102 37.400160517887954
  endloop
endfacet
facet normal 0.0003475762079599629 0.03185424511642348 -0.9994924643331947
  outer loop
    vertex 1.9934943125447608 1.4188152636514875 37.40016051788794
    vertex -2.9843975256987205 3.4722352381780155 37.46387280057058
    vertex 2.015304851173257 3.4176812034884008 37.46387280057056
  endloop
endfacet
facet normal -0.010905269314248678 -0.9994329699184566 -0.03185614134130881
  outer loop
    vertex 1.9401758738160146 -3.467648704775512 32.73222454053655
    vertex -3.0502425360050145 -2.562248854633116 6.035186900926562
    vertex 1.949459840866954 -2.616802889322733 6.035186900926549
  endloop
endfacet
facet normal -0.010905269314248678 -0.9994329699184566 -0.03185614134130881
  outer loop
    vertex -3.0502425360050145 -2.562248854633116 6.035186900926562
    vertex 1.9401758738160146 -3.467648704775512 32.73222454053655
    vertex -3.0595265030559404 -3.413094670085896 32.732224540536556
  endloop
endfacet
facet normal -0.010905269314248667 -0.9994329699184566 -0.03185614134130864
  outer loop
    vertex 1.9113132204643537 -6.112818349631484 52.94762044190407
    vertex -3.0830174757666917 -5.565967006022002 37.5007797248014
    vertex 1.9166849011052767 -5.620521040711617 37.50077972480139
  endloop
endfacet
facet normal -0.010905269314248667 -0.9994329699184566 -0.03185614134130864
  outer loop
    vertex -3.0830174757666917 -5.565967006022002 37.5007797248014
    vertex 1.9113132204643537 -6.112818349631484 52.94762044190407
    vertex -3.0883891564076147 -6.058264314941866 52.947620441904085
  endloop
endfacet
facet normal 0.9999404753743912 -0.010910806937922802 -2.547079754436706e-15
  outer loop
    vertex 2.015304851173257 3.4176812034884008 37.46387280057056
    vertex 1.9934943125447608 1.4188152636514875 37.40016051788794
    vertex 1.9951530722559196 1.570835273129919 32.63022001714062
  endloop
endfacet
facet normal -0.9999404753743912 0.010910806937922957 -2.253911600364783e-15
  outer loop
    vertex -2.9843975256987205 3.4722352381780155 37.46387280057058
    vertex -3.0045493046160354 1.6253893078195327 32.63022001714063
    vertex -3.0062080643272173 1.473369298341102 37.400160517887954
  endloop
endfacet
facet normal 0.010192106924957818 0.9340739233673739 -0.35693420491949474
  outer loop
    vertex -3.0045493046160354 1.6253893078195327 32.63022001714063
    vertex 2.015304851173257 3.4176812034884008 37.46387280057056
    vertex 1.9951530722559196 1.570835273129919 32.63022001714062
  endloop
endfacet
facet normal 0.010192106924957818 0.9340739233673739 -0.35693420491949474
  outer loop
    vertex 2.015304851173257 3.4176812034884008 37.46387280057056
    vertex -3.0045493046160354 1.6253893078195327 32.63022001714063
    vertex -2.9843975256987205 3.4722352381780155 37.46387280057058
  endloop
endfacet
facet normal 0.010905269314248232 0.9994329699184566 0.03185614134130848
  outer loop
    vertex -3.0045493046160354 1.6253893078195327 32.63022001714063
    vertex 1.9934943125447608 1.4188152636514875 37.40016051788794
    vertex 1.9951530722559196 1.570835273129919 32.63022001714062
  endloop
endfacet
facet normal 0.010905269314248232 0.9994329699184566 0.03185614134130848
  outer loop
    vertex 1.9934943125447608 1.4188152636514875 37.40016051788794
    vertex -3.0045493046160354 1.6253893078195327 32.63022001714063
    vertex -3.0062080643272173 1.473369298341102 37.400160517887954
  endloop
endfacet
facet normal -0.009944211464047111 -0.9113550991375976 -0.41150090635897546
  outer loop
    vertex 1.9166849011052767 -5.620521040711617 37.50077972480139
    vertex -3.0595265030559404 -3.413094670085896 32.732224540536556
    vertex 1.9401758738160146 -3.467648704775512 32.73222454053655
  endloop
endfacet
facet normal -0.009944211464047111 -0.9113550991375976 -0.41150090635897546
  outer loop
    vertex -3.0595265030559404 -3.413094670085896 32.732224540536556
    vertex 1.9166849011052767 -5.620521040711617 37.50077972480139
    vertex -3.0830174757666917 -5.565967006022002 37.5007797248014
  endloop
endfacet
facet normal -0.9999404753743912 0.01091080693792285 2.202151370352941e-15
  outer loop
    vertex -3.0607071551910705 -3.5212976530399356 48.86317980105135
    vertex -3.0595265030559404 -3.413094670085896 32.732224540536556
    vertex -3.0830174757666917 -5.565967006022002 37.5007797248014
  endloop
endfacet
facet normal -0.9999404753743912 0.01091080693792285 2.202151370352941e-15
  outer loop
    vertex -3.0595265030559404 -3.413094670085896 32.732224540536556
    vertex -3.0607071551910705 -3.5212976530399356 48.86317980105135
    vertex -3.0599636017292116 -3.4531533621229387 48.34554171084631
  endloop
endfacet
facet normal -0.9999404753743912 0.01091080693792285 2.202151370352941e-15
  outer loop
    vertex -3.0595265030559404 -3.413094670085896 32.732224540536556
    vertex -3.0599636017292116 -3.4531533621229387 48.34554171084631
    vertex -3.032729534359573 -0.9572384012129704 37.95728632593944
  endloop
endfacet
facet normal -0.9999404753743912 0.01091080693792285 2.202151370352941e-15
  outer loop
    vertex -3.0595265030559404 -3.413094670085896 32.732224540536556
    vertex -3.032729534359573 -0.9572384012129704 37.95728632593944
    vertex -3.0502425360050145 -2.562248854633116 6.035186900926562
  endloop
endfacet
facet normal -0.9999404753743912 0.01091080693792285 2.202151370352941e-15
  outer loop
    vertex -3.0502425360050145 -2.562248854633116 6.035186900926562
    vertex -3.032729534359573 -0.9572384012129704 37.95728632593944
    vertex -3.048493192917959 -2.4019271691708863 -0.15130859228467172
  endloop
endfacet
facet normal -0.9999404753743912 0.01091080693792285 2.202151370352941e-15
  outer loop
    vertex -3.048493192917959 -2.4019271691708863 -0.15130859228467172
    vertex -3.032729534359573 -0.9572384012129704 37.95728632593944
    vertex -3.043729480473434 -1.9653481962818147 2.943145594888723
  endloop
endfacet
facet normal -0.9999404753743912 0.01091080693792285 2.202151370352941e-15
  outer loop
    vertex -3.043729480473434 -1.9653481962818147 2.943145594888723
    vertex -3.032729534359573 -0.9572384012129704 37.95728632593944
    vertex -3.04320948145923 -1.9176919537688446 3.4630705912468667
  endloop
endfacet
facet normal -0.9999404753743912 0.01091080693792285 2.202151370352941e-15
  outer loop
    vertex -3.04320948145923 -1.9176919537688446 3.4630705912468667
    vertex -3.032729534359573 -0.9572384012129704 37.95728632593944
    vertex -3.0412389719772692 -1.7371010772793245 3.952944495541213
  endloop
endfacet
facet normal -0.9999404753743912 0.01091080693792285 2.202151370352941e-15
  outer loop
    vertex -3.0412389719772692 -1.7371010772793245 3.952944495541213
    vertex -3.032729534359573 -0.9572384012129704 37.95728632593944
    vertex -3.037952238992308 -1.4358825366054806 4.379383210748999
  endloop
endfacet
facet normal -0.9999404753743912 0.01091080693792285 2.202151370352941e-15
  outer loop
    vertex -3.037952238992308 -1.4358825366054806 4.379383210748999
    vertex -3.032729534359573 -0.9572384012129704 37.95728632593944
    vertex -3.033573267925679 -1.0345638775070616 4.7133256431520785
  endloop
endfacet
facet normal -0.9999404753743912 0.01091080693792285 2.202151370352941e-15
  outer loop
    vertex -3.033573267925679 -1.0345638775070616 4.7133256431520785
    vertex -3.032729534359573 -0.9572384012129704 37.95728632593944
    vertex -3.028400478418994 -0.5604943033911826 4.9320141678481955
  endloop
endfacet
facet normal -0.9999404753743912 0.01091080693792285 2.202151370352941e-15
  outer loop
    vertex -3.028400478418994 -0.5604943033911826 4.9320141678481955
    vertex -3.032729534359573 -0.9572384012129704 37.95728632593944
    vertex -3.0178074809012365 0.410319957540636 48.34554171084631
  endloop
endfacet
facet normal -0.9999404753743912 0.01091080693792285 2.202151370352941e-15
  outer loop
    vertex -3.028400478418994 -0.5604943033911826 4.9320141678481955
    vertex -3.0178074809012365 0.410319957540636 48.34554171084631
    vertex -3.02278638752869 -0.04598087229682783 5.020545523279153
  endloop
endfacet
facet normal -0.9999404753743912 0.01091080693792285 2.202151370352941e-15
  outer loop
    vertex -3.02278638752869 -0.04598087229682783 5.020545523279153
    vertex -3.0178074809012365 0.410319957540636 48.34554171084631
    vertex -3.0171135862712273 0.47391317572057134 4.972886443877321
  endloop
endfacet
facet normal -0.9999404753743912 0.01091080693792285 2.202151370352941e-15
  outer loop
    vertex -3.0171135862712273 0.47391317572057134 4.972886443877321
    vertex -3.0178074809012365 0.410319957540636 48.34554171084631
    vertex -3.0170639274393785 0.4784642484576331 48.86317980105135
  endloop
endfacet
facet normal -0.9999404753743912 0.01091080693792285 2.202151370352941e-15
  outer loop
    vertex -3.0171135862712273 0.47391317572057134 4.972886443877321
    vertex -3.0170639274393785 0.4784642484576331 48.86317980105135
    vertex -3.0117686666775523 0.9637579204541626 4.7922848171435914
  endloop
endfacet
facet normal -0.9999404753743912 0.01091080693792285 2.202151370352941e-15
  outer loop
    vertex -3.062245964077824 -3.6623245540326166 4.552838498340592
    vertex -3.0651947331135 -3.932569782279087 2.500000000000023
    vertex -3.065194733113488 -3.9325697822790926 3.544209537760433
  endloop
endfacet
facet normal -0.9999404753743912 0.01091080693792285 2.202151370352941e-15
  outer loop
    vertex -3.0651947331135 -3.932569782279087 2.500000000000023
    vertex -3.062245964077824 -3.6623245540326166 4.552838498340592
    vertex -3.0622459640778144 -3.662324554032614 1.4913710394198794
  endloop
endfacet
facet normal -0.9999404753743912 0.01091080693792285 2.202151370352941e-15
  outer loop
    vertex -3.0622459640778144 -3.662324554032614 1.4913710394198794
    vertex -3.062245964077824 -3.6623245540326166 4.552838498340592
    vertex -3.056549379743194 -3.140250863243306 5.457150484915099
  endloop
endfacet
facet normal -0.9999404753743912 0.01091080693792285 2.202151370352941e-15
  outer loop
    vertex -3.0622459640778144 -3.662324554032614 1.4913710394198794
    vertex -3.056549379743194 -3.140250863243306 5.457150484915099
    vertex -3.0565493797431955 -3.1402508632433035 0.5870590528453623
  endloop
endfacet
facet normal -0.9999404753743912 0.01091080693792285 2.202151370352941e-15
  outer loop
    vertex -3.0565493797431955 -3.1402508632433035 0.5870590528453623
    vertex -3.056549379743194 -3.140250863243306 5.457150484915099
    vertex -3.0502425360050145 -2.562248854633116 6.035186900926562
  endloop
endfacet
facet normal -0.9999404753743912 0.01091080693792285 2.202151370352941e-15
  outer loop
    vertex -3.0565493797431955 -3.1402508632433035 0.5870590528453623
    vertex -3.0502425360050145 -2.562248854633116 6.035186900926562
    vertex -3.048493192917959 -2.4019271691708863 -0.15130859228467172
  endloop
endfacet
facet normal -0.9999404753743912 0.01091080693792285 2.202151370352941e-15
  outer loop
    vertex -3.0883891564076147 -6.058264314941866 52.947620441904085
    vertex -3.0599636017292124 -3.453153362122938 49.3808178912564
    vertex -3.0830174757666917 -5.565967006022002 37.5007797248014
  endloop
endfacet
facet normal -0.9999404753743912 0.01091080693792285 2.202151370352941e-15
  outer loop
    vertex -3.0599636017292124 -3.453153362122938 49.3808178912564
    vertex -3.0883891564076147 -6.058264314941866 52.947620441904085
    vertex -3.0577836132832834 -3.2533644101841737 49.86317980105136
  endloop
endfacet
facet normal -0.9999404753743912 0.01091080693792285 2.202151370352941e-15
  outer loop
    vertex -3.0577836132832834 -3.2533644101841737 49.86317980105136
    vertex -3.0883891564076147 -6.058264314941866 52.947620441904085
    vertex -3.054315752463271 -2.9355460841314156 50.27739336342445
  endloop
endfacet
facet normal -0.9999404753743912 0.01091080693792285 2.202151370352941e-15
  outer loop
    vertex -3.054315752463271 -2.9355460841314156 50.27739336342445
    vertex -3.0883891564076147 -6.058264314941866 52.947620441904085
    vertex -3.0497963482531496 -2.521357177665543 50.595230608620234
  endloop
endfacet
facet normal -0.9999404753743912 0.01091080693792285 2.202151370352941e-15
  outer loop
    vertex -3.0497963482531496 -2.521357177665543 50.595230608620234
    vertex -3.0883891564076147 -6.058264314941866 52.947620441904085
    vertex -2.989882108678243 2.9695907918947886 53.23537623638792
  endloop
endfacet
facet normal -0.9999404753743912 0.01091080693792285 2.202151370352941e-15
  outer loop
    vertex -3.0830174757666917 -5.565967006022002 37.5007797248014
    vertex -3.0599636017292124 -3.453153362122938 49.3808178912564
    vertex -3.0607071551910705 -3.5212976530399356 48.86317980105135
  endloop
endfacet
facet normal -0.9999404753743912 0.01091080693792285 2.202151370352941e-15
  outer loop
    vertex -3.0497963482531496 -2.521357177665543 50.595230608620234
    vertex -2.989882108678243 2.9695907918947886 53.23537623638792
    vertex -3.0445333905811687 -2.039023980282672 50.79503145362949
  endloop
endfacet
facet normal -0.9999404753743912 0.01091080693792285 2.202151370352941e-15
  outer loop
    vertex -3.0445333905811687 -2.039023980282672 50.79503145362949
    vertex -2.989882108678243 2.9695907918947886 53.23537623638792
    vertex -3.0388855413152265 -1.5214167022911511 50.86317980105136
  endloop
endfacet
facet normal -0.9999404753743912 0.01091080693792285 2.202151370352941e-15
  outer loop
    vertex -3.0388855413152265 -1.5214167022911511 50.86317980105136
    vertex -2.989882108678243 2.9695907918947886 53.23537623638792
    vertex -3.0332376920492843 -1.0038094242996292 50.79503145362949
  endloop
endfacet
facet normal -0.9999404753743912 0.01091080693792285 2.202151370352941e-15
  outer loop
    vertex -3.0332376920492843 -1.0038094242996292 50.79503145362949
    vertex -2.989882108678243 2.9695907918947886 53.23537623638792
    vertex -3.0279747343773034 -0.5214762269167583 50.595230608620234
  endloop
endfacet
facet normal -0.9999404753743912 0.01091080693792285 2.202151370352941e-15
  outer loop
    vertex -3.0279747343773034 -0.5214762269167583 50.595230608620234
    vertex -2.989882108678243 2.9695907918947886 53.23537623638792
    vertex -3.023455330167181 -0.1072873204508858 50.27739336342445
  endloop
endfacet
facet normal -0.9999404753743912 0.01091080693792285 2.202151370352941e-15
  outer loop
    vertex -3.023455330167181 -0.1072873204508858 50.27739336342445
    vertex -2.989882108678243 2.9695907918947886 53.23537623638792
    vertex -3.0199874693471678 0.21053100560187182 49.86317980105135
  endloop
endfacet
facet normal -0.9999404753743912 0.01091080693792285 2.202151370352941e-15
  outer loop
    vertex -3.0199874693471678 0.21053100560187182 49.86317980105135
    vertex -2.989882108678243 2.9695907918947886 53.23537623638792
    vertex -3.0178074809012374 0.410319957540636 49.38081789125639
  endloop
endfacet
facet normal -0.9999404753743912 0.01091080693792285 2.202151370352941e-15
  outer loop
    vertex -3.0178074809012374 0.410319957540636 49.38081789125639
    vertex -2.989882108678243 2.9695907918947886 53.23537623638792
    vertex -3.0170639274393785 0.4784642484576331 48.86317980105135
  endloop
endfacet
facet normal -0.9999404753743912 0.01091080693792285 2.202151370352941e-15
  outer loop
    vertex -3.0170639274393785 0.4784642484576331 48.86317980105135
    vertex -2.989882108678243 2.9695907918947886 53.23537623638792
    vertex -3.0062080643272173 1.473369298341102 37.400160517887954
  endloop
endfacet
facet normal -0.9999404753743912 0.01091080693792285 2.202151370352941e-15
  outer loop
    vertex -3.0170639274393785 0.4784642484576331 48.86317980105135
    vertex -3.0062080643272173 1.473369298341102 37.400160517887954
    vertex -3.0117686666775523 0.9637579204541626 4.7922848171435914
  endloop
endfacet
facet normal -0.9999404753743912 0.01091080693792285 2.202151370352941e-15
  outer loop
    vertex -3.0117686666775523 0.9637579204541626 4.7922848171435914
    vertex -3.0062080643272173 1.473369298341102 37.400160517887954
    vertex -3.0071158761850705 1.3901712520570713 4.491048345481558
  endloop
endfacet
facet normal -0.9999404753743912 0.01091080693792285 2.202151370352941e-15
  outer loop
    vertex -3.0062080643272173 1.473369298341102 37.400160517887954
    vertex -2.989882108678243 2.9695907918947886 53.23537623638792
    vertex -2.9843975256987205 3.4722352381780155 37.46387280057058
  endloop
endfacet
facet normal -0.9999404753743912 0.01091080693792285 2.202151370352941e-15
  outer loop
    vertex -3.0062080643272173 1.473369298341102 37.400160517887954
    vertex -3.003472294776733 1.7240938066619074 4.089705796618175
    vertex -3.0071158761850705 1.3901712520570713 4.491048345481558
  endloop
endfacet
facet normal -0.9999404753743912 0.01091080693792285 2.202151370352941e-15
  outer loop
    vertex -3.003472294776733 1.7240938066619074 4.089705796618175
    vertex -3.0062080643272173 1.473369298341102 37.400160517887954
    vertex -3.0045493046160354 1.6253893078195327 32.63022001714063
  endloop
endfacet
facet normal -0.9999404753743912 0.01091080693792285 2.202151370352941e-15
  outer loop
    vertex -3.003472294776733 1.7240938066619074 4.089705796618175
    vertex -3.0045493046160354 1.6253893078195327 32.63022001714063
    vertex -2.995356565532637 2.4678743725297037 6.195518130045181
  endloop
endfacet
facet normal -0.9999404753743912 0.01091080693792285 2.202151370352941e-15
  outer loop
    vertex -3.003472294776733 1.7240938066619074 4.089705796618175
    vertex -2.995356565532637 2.4678743725297037 6.195518130045181
    vertex -3.001086226504239 1.942769314005467 3.615608002008567
  endloop
endfacet
facet normal -0.9999404753743912 0.01091080693792285 2.202151370352941e-15
  outer loop
    vertex -3.001086226504239 1.942769314005467 3.615608002008567
    vertex -2.995356565532637 2.4678743725297037 6.195518130045181
    vertex -3.000120277977174 2.031295399640637 3.101063942871737
  endloop
endfacet
facet normal -0.9999404753743912 0.01091080693792285 2.202151370352941e-15
  outer loop
    vertex -3.000120277977174 2.031295399640637 3.101063942871737
    vertex -2.995356565532637 2.4678743725297037 6.195518130045181
    vertex -2.9953565655326218 2.4678743725297023 -0.15130859228468194
  endloop
endfacet
facet normal -0.9999404753743912 0.01091080693792285 2.202151370352941e-15
  outer loop
    vertex -2.9953565655326218 2.4678743725297023 -0.15130859228468194
    vertex -2.995356565532637 2.4678743725297037 6.195518130045181
    vertex -2.9873003787074004 3.206198066602123 0.5870590528453583
  endloop
endfacet
facet normal -0.9999404753743912 0.01091080693792285 2.202151370352941e-15
  outer loop
    vertex -2.9873003787074004 3.206198066602123 0.5870590528453583
    vertex -2.995356565532637 2.4678743725297037 6.195518130045181
    vertex -2.9873003787074017 3.2061980666021266 5.457150484915107
  endloop
endfacet
facet normal -0.9999404753743912 0.01091080693792285 2.202151370352941e-15
  outer loop
    vertex -2.9873003787074004 3.206198066602123 0.5870590528453583
    vertex -2.9873003787074017 3.2061980666021266 5.457150484915107
    vertex -2.9816037943727856 3.7282717573914392 1.4913710394198756
  endloop
endfacet
facet normal -0.9999404753743912 0.01091080693792285 2.202151370352941e-15
  outer loop
    vertex -2.9816037943727856 3.7282717573914392 1.4913710394198756
    vertex -2.9873003787074017 3.2061980666021266 5.457150484915107
    vertex -2.9816037943727913 3.7282717573914326 4.552838498340592
  endloop
endfacet
facet normal -0.9999404753743912 0.01091080693792285 2.202151370352941e-15
  outer loop
    vertex -2.9816037943727856 3.7282717573914392 1.4913710394198756
    vertex -2.9816037943727913 3.7282717573914326 4.552838498340592
    vertex -2.9786550253371225 3.998516985637911 3.544209537760436
  endloop
endfacet
facet normal -0.9999404753743912 0.01091080693792285 2.202151370352941e-15
  outer loop
    vertex -2.9816037943727856 3.7282717573914392 1.4913710394198756
    vertex -2.9786550253371225 3.998516985637911 3.544209537760436
    vertex -2.978655025337133 3.9985169856379192 2.500000000000027
  endloop
endfacet
facet normal -0.9999404753743912 0.01091080693792285 2.202151370352941e-15
  outer loop
    vertex -3.043729480473434 -1.9653481962818147 2.943145594888723
    vertex -3.038626419420806 -1.4976690114287963 -0.6734133611648918
    vertex -3.048493192917959 -2.4019271691708863 -0.15130859228467172
  endloop
endfacet
facet normal -0.9999404753743912 0.01091080693792285 2.202151370352941e-15
  outer loop
    vertex -3.038626419420806 -1.4976690114287963 -0.6734133611648918
    vertex -3.043729480473434 -1.9653481962818147 2.943145594888723
    vertex -3.0427635319463717 -1.8768221106466505 2.428601535751884
  endloop
endfacet
facet normal -0.9999404753743912 0.01091080693792285 2.202151370352941e-15
  outer loop
    vertex -3.038626419420806 -1.4976690114287963 -0.6734133611648918
    vertex -3.0427635319463717 -1.8768221106466505 2.428601535751884
    vertex -3.0403774636738747 -1.6581466033030878 1.9545037411422863
  endloop
endfacet
facet normal -0.9999404753743912 0.01091080693792285 2.202151370352941e-15
  outer loop
    vertex -3.038626419420806 -1.4976690114287963 -0.6734133611648918
    vertex -3.0403774636738747 -1.6581466033030878 1.9545037411422863
    vertex -3.0367338822655423 -1.3242240486982548 1.5531611922789104
  endloop
endfacet
facet normal -0.9999404753743912 0.01091080693792285 2.202151370352941e-15
  outer loop
    vertex -3.038626419420806 -1.4976690114287963 -0.6734133611648918
    vertex -3.0367338822655423 -1.3242240486982548 1.5531611922789104
    vertex -3.0276214635599317 -0.48910008910990016 -0.9436746766149858
  endloop
endfacet
facet normal -0.9999404753743912 0.01091080693792285 2.202151370352941e-15
  outer loop
    vertex -3.0276214635599317 -0.48910008910990016 -0.9436746766149858
    vertex -3.0367338822655423 -1.3242240486982548 1.5531611922789104
    vertex -3.032081091773045 -0.8978107170953441 1.2519247206168698
  endloop
endfacet
facet normal -0.9999404753743912 0.01091080693792285 2.202151370352941e-15
  outer loop
    vertex -3.0276214635599317 -0.48910008910990016 -0.9436746766149858
    vertex -3.032081091773045 -0.8978107170953441 1.2519247206168698
    vertex -3.0267361721793575 -0.4079659723617499 1.0713230938831306
  endloop
endfacet
facet normal -0.9999404753743912 0.01091080693792285 2.202151370352941e-15
  outer loop
    vertex -3.0276214635599317 -0.48910008910990016 -0.9436746766149858
    vertex -3.0267361721793575 -0.4079659723617499 1.0713230938831306
    vertex -3.0162282948906847 0.5550472924687212 -0.9436746766149825
  endloop
endfacet
facet normal -0.9999404753743912 0.01091080693792285 2.202151370352941e-15
  outer loop
    vertex -3.0162282948906847 0.5550472924687212 -0.9436746766149825
    vertex -3.0267361721793575 -0.4079659723617499 1.0713230938831306
    vertex -3.021063370921911 0.11192807565564827 1.0236640144813047
  endloop
endfacet
facet normal -0.9999404753743912 0.01091080693792285 2.202151370352941e-15
  outer loop
    vertex -3.0162282948906847 0.5550472924687212 -0.9436746766149825
    vertex -3.021063370921911 0.11192807565564827 1.0236640144813047
    vertex -3.0154492800316013 0.6264415067500025 1.1121953699122638
  endloop
endfacet
facet normal -0.9999404753743912 0.01091080693792285 2.202151370352941e-15
  outer loop
    vertex -3.0162282948906847 0.5550472924687212 -0.9436746766149825
    vertex -3.0154492800316013 0.6264415067500025 1.1121953699122638
    vertex -3.00522333902979 1.563616214787615 -0.6734133611648931
  endloop
endfacet
facet normal -0.9999404753743912 0.01091080693792285 2.202151370352941e-15
  outer loop
    vertex -3.00522333902979 1.563616214787615 -0.6734133611648931
    vertex -3.0154492800316013 0.6264415067500025 1.1121953699122638
    vertex -3.010276490524918 1.1005110808658838 1.3308838946083796
  endloop
endfacet
facet normal -0.9999404753743912 0.01091080693792285 2.202151370352941e-15
  outer loop
    vertex -3.00522333902979 1.563616214787615 -0.6734133611648931
    vertex -3.010276490524918 1.1005110808658838 1.3308838946083796
    vertex -3.0058975194583146 1.501829739964302 1.664826327011469
  endloop
endfacet
facet normal -0.9999404753743912 0.01091080693792285 2.202151370352941e-15
  outer loop
    vertex -3.00522333902979 1.563616214787615 -0.6734133611648931
    vertex -3.0058975194583146 1.501829739964302 1.664826327011469
    vertex -3.0026107864733516 1.803048280638149 2.091265042219245
  endloop
endfacet
facet normal -0.9999404753743912 0.01091080693792285 2.202151370352941e-15
  outer loop
    vertex -3.00522333902979 1.563616214787615 -0.6734133611648931
    vertex -3.0026107864733516 1.803048280638149 2.091265042219245
    vertex -2.9953565655326218 2.4678743725297023 -0.15130859228468194
  endloop
endfacet
facet normal -0.9999404753743912 0.01091080693792285 2.202151370352941e-15
  outer loop
    vertex -2.9953565655326218 2.4678743725297023 -0.15130859228468194
    vertex -3.0026107864733516 1.803048280638149 2.091265042219245
    vertex -3.0006402769913696 1.9836391571276657 2.581138946513586
  endloop
endfacet
facet normal -0.9999404753743912 0.01091080693792285 2.202151370352941e-15
  outer loop
    vertex -2.9953565655326218 2.4678743725297023 -0.15130859228468194
    vertex -3.0006402769913696 1.9836391571276657 2.581138946513586
    vertex -3.000120277977174 2.031295399640637 3.101063942871737
  endloop
endfacet
endsolid piston
